<?xml version="1.0" standalone="no"?>
<!DOCTYPE svg PUBLIC "-//W3C//DTD SVG 1.1//EN" "http://www.w3.org/Graphics/SVG/1.1/DTD/svg11.dtd" >
<svg xmlns="http://www.w3.org/2000/svg">
<metadata>Generated by IcoMoon</metadata>
<defs>
<font id="superhero" horiz-adv-x="1024">
<font-face units-per-em="1024" ascent="960" descent="-64" />
<missing-glyph horiz-adv-x="1024" />
<glyph unicode="&#x20;" horiz-adv-x="512" d="" />
<glyph unicode="&#xe900;" glyph-name="neuralytics" horiz-adv-x="1030" d="M916.963 518.064c0 8.187-4.575 15.41-11.557 18.78v102.327c6.742 3.612 11.557 10.593 11.557 18.78s-4.575 15.41-11.557 18.78v102.327c6.742 3.612 11.557 10.593 11.557 19.021 0 8.187-4.575 15.41-11.557 18.78v102.327c1.926 0.964 3.612 2.167 5.297 3.853 4.093 3.853 6.26 9.39 6.26 15.169 0 5.537-2.167 11.076-6.26 15.169-4.093 3.853-9.39 6.26-15.169 6.26s-11.076-2.167-15.169-6.26c-1.445-1.445-2.889-3.37-3.853-5.297h-82.825c-3.612 6.742-10.593 11.557-18.78 11.557s-15.41-4.575-19.021-11.557h-82.585c-0.964 1.926-2.167 3.612-3.853 5.297-3.853 3.853-9.39 6.26-15.169 6.26-5.537 0-11.076-2.167-15.169-6.26-3.853-4.093-6.26-9.39-6.26-15.169 0-5.537 2.408-11.076 6.26-15.169 1.445-1.445 3.37-2.889 5.297-3.853v-85.474c-6.742-3.612-11.557-10.593-11.557-19.021 0-8.187 4.575-15.41 11.557-18.78v-85.474c-6.742-3.612-11.557-10.593-11.557-19.021s4.575-15.41 11.557-18.78v-85.474c-6.742-3.612-11.557-10.593-11.557-18.78s4.575-15.41 11.557-19.021v-70.546l-50.321 78.732c3.853 6.742 3.853 15.169-0.481 22.15s-12.279 10.354-19.744 9.871l-58.266 91.253c3.853 6.742 3.853 15.169-0.481 22.15s-12.279 10.354-19.744 9.871l-57.785 91.493c3.853 6.742 3.853 15.169-0.481 22.15s-12.279 10.354-19.744 9.871l-58.266 91.493c1.926 3.13 2.889 6.982 2.889 10.593 0 5.537-2.167 11.076-6.26 15.169-3.853 4.093-9.39 6.26-15.169 6.26s-11.076-2.167-15.169-6.26c-1.445-1.445-2.889-3.37-3.853-5.297h-67.656c-3.612 6.742-10.593 11.557-18.78 11.557s-15.41-4.575-19.021-11.557h-67.656c-0.964 1.926-2.167 3.612-3.853 5.297-3.853 4.093-9.39 6.26-15.169 6.26-5.537 0-11.076-2.167-15.169-6.26-4.093-3.853-6.26-9.39-6.26-15.169 0-5.537 2.167-11.076 6.26-15.169 1.445-1.445 3.37-2.889 5.297-3.853v-102.327c-6.742-3.612-11.557-10.593-11.557-19.021 0-8.187 4.575-15.41 11.557-18.78v-102.327c-6.742-3.612-11.557-10.593-11.557-19.021 0-8.187 4.575-15.41 11.557-18.78v-102.327c-6.742-3.612-11.557-10.593-11.557-19.021 0-8.187 4.575-15.41 11.557-18.78v-102.327c-6.742-3.612-11.557-10.593-11.557-19.021 0-8.187 4.575-15.41 11.557-18.78v-102.327c-6.742-3.612-11.557-10.593-11.557-19.021 0-8.187 4.575-15.41 11.557-18.78v-102.327c-6.742-3.612-11.557-10.593-11.557-19.021 0-8.187 4.575-15.41 11.557-18.78v-102.327c-1.926-0.964-3.612-2.167-5.297-3.853-4.093-3.853-6.26-9.39-6.26-15.169 0-5.537 2.167-11.076 6.26-15.169 3.853-3.853 9.39-6.26 15.169-6.26 5.537 0 11.076 2.167 15.169 6.26 1.445 1.445 2.889 3.37 3.853 5.297h82.825c3.612-6.742 10.593-11.557 18.78-11.557s15.41 4.575 18.78 11.557h82.825c0.964-1.926 2.167-3.612 3.853-5.297 4.093-3.853 9.39-6.26 15.169-6.26s11.076 2.167 15.169 6.26c4.093 3.853 6.26 9.39 6.26 15.169 0 5.537-2.167 11.076-6.26 15.169-1.445 1.445-3.37 2.889-5.297 3.853v85.474c6.742 3.612 11.557 10.593 11.557 18.78s-4.575 15.41-11.557 19.021v85.474c6.742 3.612 11.557 10.593 11.557 19.021 0 8.187-4.575 15.41-11.557 18.78v85.474c6.742 3.612 11.557 10.593 11.557 18.78s-4.575 15.41-11.557 19.021v70.546l50.321-78.732c-3.853-6.742-3.853-15.169 0.481-22.15 4.093-6.501 10.835-9.871 18.058-9.871 0.722 0 1.203 0 1.926 0.241l58.266-91.493c-3.853-6.742-3.853-15.169 0.481-22.15 4.093-6.501 10.835-9.871 18.058-9.871 0.722 0 1.203 0 1.926 0.241l58.266-91.493c-3.853-6.742-3.853-15.169 0.481-22.15 4.093-6.26 10.835-9.871 18.058-9.871 0.481 0 1.203 0 1.686 0.241l58.266-91.493c-1.926-3.13-2.889-6.982-2.889-10.593 0-5.537 2.167-11.076 6.26-15.169 4.093-3.853 9.39-6.26 15.169-6.26s11.076 2.167 15.169 6.26c1.445 1.445 2.889 3.37 3.853 5.297h67.656c3.612-6.742 10.593-11.557 19.021-11.557 8.187 0 15.41 4.575 18.78 11.557h66.934c0.964-1.926 2.167-3.612 3.853-5.297 4.093-3.853 9.39-6.26 15.169-6.26 5.537 0 11.076 2.167 15.169 6.26 4.093 3.853 6.26 9.39 6.26 15.169 0 5.537-2.167 11.076-6.26 15.169-1.445 1.445-3.37 2.889-5.297 3.853v102.327c6.742 3.612 11.557 10.593 11.557 18.78s-4.575 15.41-11.557 19.021v102.327c6.742 3.612 11.557 10.593 11.557 18.78s-4.575 15.41-11.557 18.78v102.327c6.742 3.612 11.557 10.593 11.557 18.78s-4.575 15.41-11.557 18.78v102.327c6.742 3.853 11.316 11.076 11.316 19.261zM699.305-26.56c-1.445 1.203-3.13 2.408-4.815 3.37l13.724 152.167 18.78 1.926 75.121-76.807-4.334-40.691-98.476-39.969zM590.477 124.403l40.208 104.977 74.879-76.565-0.481-4.575-10.112-15.891-103.050-10.112-1.445 2.167zM545.694 216.137c-2.648 3.853-6.020 6.501-10.112 7.945l5.056 96.068 0.964 0.481 63.805-65.249-59.711-39.246zM480.925 296.314l-12.279 83.788 11.076 3.612 32.023-32.745-29.856-56.582-0.964 1.926zM459.016 412.126l-5.537 5.537 5.056-1.926 0.481-3.612zM235.339 917.023c1.686 0 3.13 0.241 4.575 0.481l31.541-110.755-1.203-2.167-1.926-0.964-78.491 80.658 39.727 33.468c1.686-0.481 3.853-0.722 5.779-0.722zM397.859 830.345l1.203-8.668c-1.926-5.779-1.445-12.521 2.167-18.058 0.241-0.241 0.481-0.481 0.481-0.722l9.39-64.527-5.297-5.297-74.879 30.337 6.020 65.249 48.395 21.188 12.521-19.502zM478.277 703.699l-60.674 24.559-1.203 8.427 24.8 25.522 37.079-58.507zM598.423 515.416l-17.577-33.468-25.281 26.003 39.727 12.279 3.13-4.815zM673.543 928.339h1.686l93.42-79.213-5.779-62.6-6.982-2.889-85.714 140.129c1.445 1.445 2.648 3.13 3.37 4.575zM728.92 135.96l-15.65 16.132 62.6 97.031 40.208-65.489-4.334-39.486-82.825-8.187zM811.264 139.091l-8.427-78.732-69.342 71.028 77.769 7.704zM672.58 338.689l11.557 29.856 36.597-37.56-10.354-6.742-37.802 14.446zM705.325 320.873l-52.729-34.671 18.299 47.914 34.43-13.243zM664.634 587.407v53.692l92.456 115.089 3.13-2.648-8.187-90.77-75.843-92.937c-0.964 7.704-5.297 14.205-11.557 17.577zM852.195 778.097l25.522-21.669-3.612-32.985-34.912-28.411-22.873 18.78 14.688 38.283 21.188 26.003zM836.545 766.782l7.223 18.539 4.815-4.093-12.038-14.446zM885.181 779.783c0.241-0.241 0.481-0.241 0.722-0.481v-23.114l-3.13 2.648 2.408 20.947zM885.904 749.686v-16.613l-6.26-5.056 2.648 24.8 3.612-3.13zM883.976 815.899c-0.722-0.481-1.686-1.203-2.408-1.686l2.408 3.13v-1.445zM880.606 783.395l-2.167-20.706-22.873 19.502 21.911 26.726c-1.686-3.13-2.889-6.742-2.889-10.354-0.241-6.26 2.167-11.316 6.020-15.169zM873.383 716.46l-4.815-45.506-25.522 20.947 30.337 24.559zM744.33 525.769l47.673 124.479 26.726 21.669 37.802-61.878-112.922-92.215 0.722 7.945zM756.609 661.083l39.246 48.154 8.187-13.483-16.372-42.375-34.671-28.17 3.612 35.874zM747.942 620.633l-72.712-59.23 75.843 92.697-3.13-33.468zM784.297 643.988l-38.524-100.402 6.742 74.64 31.782 25.762zM795.614 659.397l11.798 30.818 8.668-14.205-20.466-16.613zM809.578 696.235l4.815 12.76 20.706-17.094-15.41-12.521-10.112 16.854zM812.228 717.182l-6.020 4.815 14.688 18.058-8.668-22.873zM810.542 712.367l-4.093-10.835-7.223 11.798 4.093 5.056 7.223-6.020zM796.576 717.664l-7.464 12.279 10.354-8.668-2.889-3.612zM793.206 713.57l-35.874-43.82 7.223 80.177 12.76-10.593 15.891-25.762zM765.036 755.947l0.241 3.13 4.093-6.742-4.334 3.612zM760.461 759.559l-0.481 0.481 0.722 0.964-0.241-1.445zM669.69 460.279c-1.445 1.445-3.37 2.889-5.297 3.853v71.75l50.803-40.931-44.302-36.116c0 0.481-0.481 0.964-1.203 1.445zM664.634 542.142v4.334l82.825 67.416-7.945-87.159-6.982-18.058-13.243-10.835-54.655 44.302zM728.92 499.526l-2.648-7.223-3.13 2.408 5.779 4.815zM736.624 505.785l0.964 0.722-1.926-21.669-5.297 4.334 6.26 16.613zM735.18 479.059l-3.13-35.152-24.8-15.41 21.428 55.859 6.501-5.297zM834.378 405.383l-67.416 54.174 84.269 52.007-11.076-102.327-5.779-3.853zM839.675 402.975l-0.241-1.686-1.203 0.964 1.445 0.722zM830.044 402.494l-101.605-66.694-1.203 1.926 9.39 102.81 26.003 15.891 67.416-53.932zM737.107 447.036l2.648 28.17 18.78-15.169-21.428-13.002zM731.328 437.646l-8.427-92.697-29.374 48.154 10.593 27.689 27.207 16.854zM722.178 336.764v-0.481l-36.116 37.319 5.297 13.724 30.818-50.562zM731.087 331.707l103.050 67.416 4.815-3.853-5.056-47.914-36.597-56.822-48.636 18.78-9.871 10.112-7.704 12.279zM832.692 336.764l-6.26-57.304-24.8 9.631 31.059 47.673zM794.41 286.443l-9.39-14.688-28.411 29.374 37.802-14.688zM782.13 267.663l-6.020-9.39-25.762 42.135 31.782-32.745zM785.742 264.051l35.152-36.357-3.853-36.357-38.041 62.119 6.742 10.593zM788.391 268.385l10.593 16.372 26.967-10.354-4.334-40.208-33.226 34.19zM830.766 272.478l50.321-19.261c-4.093-3.853-6.501-9.149-6.501-15.169 0-8.187 4.575-15.41 11.557-18.78v-51.043l-59.952 61.638 4.575 42.617zM885.904 357.711v-100.883c0 0-0.241 0-0.241-0.241l-54.415 20.947 7.223 68.379 21.188 32.745 26.245-20.947zM839.675 356.747l3.853 34.912 12.279-9.871-16.132-25.040zM844.009 397.679l0.964 8.909 40.931 26.726v-4.815l-27.448-42.375-14.446 11.557zM885.904 499.043v-59.952l-40.208-26.245 11.076 102.088 19.744 12.038c-1.203-2.648-1.926-5.779-1.926-8.909-0.241-8.187 4.575-15.41 11.316-19.021zM885.904 538.53l-28.651-17.577 7.945 74.64 20.466-33.468v-23.595zM851.955 517.823l-89.086-54.896-22.633 18.299 2.648 29.856 116.051 94.864 1.926-3.37-8.909-84.752zM860.381 613.169l-37.802 61.878 16.613 13.483 28.651-23.595-5.297-50.081-2.167-1.686zM872.419 661.324l2.167-1.686c0-0.481 0-0.964 0-1.686 0-8.187 4.575-15.41 11.557-18.78v-5.056l-18.058-14.688 4.334 41.894zM873.142 667.342l5.779 53.692 6.982 5.779v-49.598c-4.815-2.408-8.427-6.742-10.354-11.798l-2.408 1.926zM885.904 837.086l-26.484-10.835 26.484 69.101v-58.266zM885.662 831.79l-0.481-5.537-33.468-40.931-6.020 5.056 11.316 29.615 28.651 11.798zM841.601 793.747l-15.891 13.483 25.040 10.354-9.149-23.836zM839.675 788.691l-13.002-33.949-24.078-29.615-21.428 17.577-14.927 24.559v0.722l17.577 21.911 36.838 15.169 19.021-16.372zM766.962 776.653l0.481 6.501 6.742 2.889-7.223-9.39zM761.905 774.245l-3.13 5.297 3.853 1.686-0.722-6.982zM759.98 767.985l-3.853-4.815-12.521 10.112 10.354 4.334 6.020-9.631zM752.998 759.317l-88.603-110.514v24.078c6.742 3.612 11.557 10.593 11.557 18.78s-4.575 15.41-11.557 19.021v30.337l74.157 30.337 14.446-12.038zM664.634 746.316v49.84c6.742 3.612 11.557 10.593 11.557 18.78 0 3.37-0.964 6.742-2.408 9.631l60.433-49.84-69.583-28.411zM673.783 454.501l45.506 37.079 5.056-4.093-24.317-63.322-18.539-11.557-11.076 18.058c3.612 3.853 5.779 9.149 5.779 14.446-0.241 3.37-0.964 6.501-2.408 9.39zM697.38 416.699l-6.982-18.299-6.26 10.112 13.243 8.187zM687.99 392.623l-5.779-15.169-18.058 18.78 15.891 9.631 7.945-13.243zM680.284 372.398l-12.279-32.023-58.026 22.392 49.84 30.818 20.466-21.188zM721.216 325.448l-0.481-5.297-4.815 1.926 5.297 3.37zM726.031 325.207l8.427-8.668 1.445-2.408-10.593 4.093 0.722 6.982zM740.236 307.39l32.985-53.692-62.119-96.309 13.965 155.779 15.169-5.779zM820.413 176.651l18.299-29.856-21.911-2.167 3.612 32.023zM821.135 184.597l4.093 38.524 60.433-62.36v-9.631l-41.653-4.093-22.873 37.56zM885.904 146.314v-29.615c-6.742-3.612-11.557-10.593-11.557-18.78l-27.448 44.783 39.005 3.612zM874.347 377.936c0-1.926 0.241-3.612 0.722-5.297l-12.76 10.354 23.595 36.357v-22.392c-6.742-3.612-11.557-10.835-11.557-19.021zM866.16 603.779l0.964 8.668 18.78 15.41v-56.099l-19.744 32.023zM885.904 909.078l-32.745-85.474-31.541-13.002-12.521 10.593 76.807 95.827v-7.945zM816.561 808.676l-26.245-10.835 15.65 19.744 10.593-8.909zM780.927 793.988l-12.76-5.297 5.056 56.582 28.893-24.559-21.188-26.726zM751.553 781.95l-12.038-4.815-74.879 61.397v80.899c0.722 0.481 1.445 0.722 1.926 1.203l84.992-138.684zM639.594 430.183c3.853-3.853 9.39-6.26 15.169-6.26 4.334 0 8.427 1.203 11.798 3.612l10.593-17.577-16.613-10.354-32.023 32.985 7.464 2.408c0.964-1.686 2.167-3.37 3.612-4.815zM656.208 397.197l-52.007-32.023-59.952 23.114 0.964 15.891 0.964 1.686 77.288 25.522 32.745-34.19zM541.119 328.337l2.889 54.655 54.896-21.188-56.582-34.912-1.203 1.445zM539.433 403.458l-5.779-11.076-12.76 5.056 18.539 6.020zM513.429 400.086l-50.321 19.502-8.427 57.304 91.012 28.17-5.056-96.068-27.207-8.909zM539.674 393.585l-0.241-3.612-1.445 0.481 1.686 3.13zM531.247 388.048l-16.854-32.263-29.134 29.856 28.17 9.149 17.817-6.742zM535.821 386.122l3.37-1.445-2.889-51.765-18.539 19.021 18.058 34.19zM549.305 411.884l32.504 61.878 37.56-38.764-70.064-23.114zM545.934 415.737l4.815 90.048 27.689-28.411-32.504-61.638zM545.934 510.119l-91.975-28.411-13.002 89.086 10.835 20.706 13.724 2.167 80.658-82.825-0.241-0.722zM448.421 595.833l-11.076-1.686-3.37 23.595 8.668-0.722 11.076-11.316-5.297-9.871zM457.33 602.094l4.093-4.093-6.742-0.964 2.648 5.056zM361.262 308.593v-40.691l-22.392 18.058 16.613 27.207c1.445-1.926 3.37-3.37 5.779-4.575zM361.262 261.643v-38.283c-6.742-3.612-11.557-10.593-11.557-18.78s4.575-15.41 11.557-19.021v-34.43l-26.003-11.076-38.041 77.288 39.005 64.527 25.040-20.225zM270.492 794.23l6.26-6.501 0.964-3.13-10.112 4.093 2.889 5.537zM272.899 798.803l0.481 0.964 0.481-2.167-0.964 1.203zM296.495 767.504l-4.334-16.132-6.982 25.040 4.575-1.686 6.742-7.223zM336.223 578.498l-22.392-3.612 4.815 53.21 3.612-0.241 13.965-49.359zM327.555 627.134l101.365-8.909 3.612-24.8-91.493-14.205-13.483 47.914zM355.965 465.817c-1.203-1.203-2.167-2.408-3.13-3.853l-47.914 18.539 6.982 75.121 43.098-44.302 11.316-39.969c-3.853-0.722-7.464-2.648-10.354-5.537zM198.019 399.364l-58.266 46.95v4.575l24.559 25.281 35.152-71.509-1.445-5.297zM202.834 398.16l2.167-4.334-2.648 2.167 0.481 2.167zM167.924 480.023l33.949 35.152 24.317-9.39-25.040-93.66-33.226 67.898zM139.993 536.845l-0.241 0.481v1.926l57.304-22.15-31.301-32.504-14.688 29.856c0.241 1.203 0.241 2.167 0.241 3.37 0 8.427-4.575 15.41-11.316 19.021zM313.59 628.337l-5.056-54.415-6.742-0.964-21.911 22.633 32.023 32.985 1.686-0.241zM308.292 569.107l-0.241-2.167-1.926 1.926 2.167 0.241zM276.51 591.982l19.502-19.984-45.747-7.223 26.245 27.207zM248.823 570.552l10.354 39.005 13.724-13.965-24.078-25.040zM276.51 599.205l-15.65 16.132 4.575 17.577 39.969-3.612-28.893-30.096zM256.768 619.188l-15.169 15.41 18.78-1.686-3.612-13.724zM255.324 613.651l-13.483-50.081-102.088-15.891v2.889l47.673 88.845 46.709-4.093 21.188-21.669zM236.543 557.792l-35.635-36.838-57.785 22.392 93.42 14.446zM205.724 519.028l33.468 34.671-11.557-43.098-21.911 8.427zM245.933 559.236l54.415 8.427 7.223-7.464-7.223-78.010-67.898 26.245 13.483 50.803zM312.626 562.126l0.722 7.704 24.317 3.853 14.927-52.248-39.969 40.691zM319.127 632.912l0.241 3.612 0.241 0.241 1.203-3.853h-1.686zM309.978 633.635l-43.098 3.853 25.522 95.587 23.355-82.585-1.203-12.038-4.575-4.815zM320.813 650.97l7.704 83.788 39.727-40.931-45.987-47.673-1.445 4.815zM316.96 663.972l-22.15 78.251 5.779 21.188 23.355-24.078-6.982-75.362zM279.4 778.82l10.354-36.597-27.929-104.254-25.281 2.167-31.301 32.263 60.193 112.2 13.965-5.779zM228.838 640.858l-39.005 3.37 12.521 23.595 26.484-26.967zM184.537 644.711l-36.116 3.13c1.686 3.13 2.648 6.501 2.648 10.354 0 8.187-4.575 15.41-11.557 19.021v54.896l59.23-60.433-14.205-26.967zM139.753 639.172c1.926 0.964 3.612 2.408 5.297 3.853l37.079-3.13-42.375-78.973v78.251zM162.145 480.985l-22.15-23.114v41.172c3.853 1.926 6.982 5.056 8.909 8.909l13.243-26.967zM196.575 394.068l-26.245-98.235-30.578 49.84v13.483c6.742 3.612 11.557 10.593 11.557 18.78s-4.575 15.41-11.557 19.021v43.098l56.822-45.987zM139.753 219.026c6.742 3.612 11.557 10.593 11.557 18.78s-4.575 15.41-11.557 19.021v79.455l28.893-46.95-28.893-107.625v37.319zM139.753 162.686l32.263 120.868 28.411-46.228-60.674-75.843v1.203zM173.942 290.054l26.967 100.643 9.149-7.464 40.931-83.307-47.192-58.749-29.856 48.876zM219.208 376.010l56.34-45.506-21.188-26.245-35.152 71.75zM253.396 295.111l25.040-50.803-5.297-57.304-17.817-29.374-48.636 79.455 46.709 58.026zM282.53 235.881l8.909-18.299-12.521-20.947 3.612 39.246zM272.177 175.688l-3.612-39.727-10.354 16.613 13.965 23.114zM267.603 128.015l-1.686-17.336-45.025-19.021 34.19 56.582 12.521-20.225zM271.937 120.792l3.853-6.26-4.575-1.926 0.722 8.187zM272.659 128.978l5.056 56.34 16.132 26.726 36.597-74.157-50.321-21.428-7.464 12.521zM294.568 222.397l-11.076 22.873 6.742 73.676 42.135-33.949-37.802-62.6zM279.16 253.698l-22.392 45.747 22.633 28.17 6.26-5.056-6.501-68.861zM282.289 331.466l4.575 5.537-0.722-8.668-3.853 3.13zM278.438 334.355l-64.527 52.007-9.149 18.78 26.245 98.476 68.62-26.726-12.038-131.461-9.149-11.076zM304.681 475.448l46.228-17.817c-0.722-2.167-1.203-4.334-1.203-6.742 0-5.537 2.167-11.076 6.26-14.927 0.722-0.722 1.445-1.445 2.167-1.926l-65.008-80.899 11.557 122.312zM371.375 472.078l-9.149 32.023 24.559-25.281-5.056-9.871c-3.13 1.926-6.501 3.13-10.354 3.13zM359.577 513.972l-17.094 60.433 90.77 14.205 2.408-17.094-46.228-88.122-29.856 30.578zM438.069 589.332l7.704 1.203-6.020-11.557-1.686 10.354zM433.253 622.8l-0.722 4.575 4.815-5.056-4.093 0.481zM428.196 623.281l-102.088 8.909-2.408 8.427 47.914 49.598 55.137-56.582 1.445-10.354zM374.986 693.828l32.263 33.468 6.020-2.408 12.038-82.825-50.321 51.765zM371.616 697.44l-42.617 43.82 1.445 17.094 71.75-28.893-30.578-32.023zM324.424 745.835l-22.633 23.114 0.241 0.722 23.595-9.631-1.203-14.205zM292.401 778.82l-11.316 11.557-3.37 12.038 31.782 13.965-10.835-40.208-6.26 2.648zM262.786 790.618l-6.020 2.408 9.631 4.334-3.612-6.742zM260.62 786.284l-59.23-110.514-61.638 63.083v2.889l110.514 48.636 10.354-4.093zM139.753 747.038v32.263c6.742 3.612 11.557 10.593 11.557 18.78s-4.575 15.41-11.557 19.021v17.817l104.254-42.135-104.254-45.747zM139.753 78.898c6.742 3.612 11.557 10.593 11.557 18.78s-4.575 15.41-11.557 19.021v36.838l63.564 79.213 49.117-79.936-39.005-64.527-73.435-31.301v21.911zM208.854 81.065l-27.207-45.025-41.172 16.132 68.379 28.893zM216.8 84.195l48.876 20.706-9.149-98.476-70.306 27.448 30.578 50.321zM270.732 107.068l7.704 3.37 46.95-76.565-63.805-26.245 9.149 99.438zM283.011 112.365l49.84 21.188 20.225-41.172c-2.167-3.37-3.37-7.223-3.37-11.316 0-8.187 4.575-15.41 11.557-18.78v-13.483l-31.059-12.76-47.192 76.324zM337.426 135.479l23.836 10.112v-45.747c-1.686-0.964-3.37-1.926-4.815-3.37l-19.021 39.005zM361.262 346.395c-6.742-3.612-11.557-10.593-11.557-19.021 0-3.612 0.964-6.982 2.408-9.871l-17.336-28.651-44.302 35.635 1.686 19.261 68.62 85.714v-83.066zM386.062 465.817c0 0-0.241 0.241-0.241 0.241l4.815 9.149 9.871-10.112-11.076-3.37c-0.964 1.445-2.167 2.889-3.37 4.093zM393.044 479.782l43.82 83.547 12.279-83.066-43.339-13.483-12.76 13.002zM471.295 594.63l69.583 10.835 9.39-14.688-3.853-73.435-75.121 77.288zM467.201 598.964l-7.464 7.704 4.575 8.668 69.342-6.020-66.453-10.354zM456.127 610.279l-6.020 6.26 8.909-0.722-2.889-5.537zM444.81 621.836l-13.483 13.965-12.76 86.678 59.23-23.836c-2.167-6.020-1.686-12.76 2.167-18.539 2.167-3.612 5.537-6.26 9.149-7.945l-27.448-52.007-16.854 1.686zM412.305 730.425l-1.445 0.481 1.203 1.203 0.241-1.686zM326.35 765.096l-22.873 9.149 11.798 44.542 16.613 7.223-5.537-60.916zM316.96 825.048l22.633 84.752-7.223-77.769-15.41-6.982zM336.462 917.263l-25.281-94.864-33.708-14.688 58.988 109.55c0 0.241 0 0.241 0 0zM263.509 801.453l-13.002-5.779-110.514 44.542v1.686l46.228 39.005 77.288-79.455zM139.753 848.403v70.787c1.926 0.964 3.612 2.167 5.297 3.853 0 0 0 0 0 0l37.56-38.524-42.858-36.116zM139.753-23.43v70.306l39.246-15.41-35.152-57.785c-1.203 1.203-2.408 2.167-4.093 2.889zM148.902-32.339c-0.481 0.722-0.964 1.686-1.445 2.408l36.357 59.952 67.656-26.484-86.919-35.874h-15.65zM328.036 29.539l32.745-53.21c-1.686-0.964-3.37-2.167-4.815-3.612-1.203-1.203-2.167-2.408-2.889-3.853l-88.364 34.43 63.322 26.245zM332.611 31.466l28.651 11.798v-58.266l-28.651 46.469zM391.358 457.149l13.002 4.093 29.856-30.578-42.375 16.372c0.241 1.203 0.481 2.648 0.481 3.853 0 1.926-0.241 4.093-0.964 6.26zM409.657 462.688l40.208 12.521 7.945-53.692-12.279 4.815-35.874 36.357zM505.966 397.679l-24.8-8.187-16.372 16.613-1.203 7.704 42.375-16.132zM466.239 397.919l9.871-10.112-7.945-2.648-1.926 12.76zM515.357 347.598l20.706-21.188-0.241-3.37-49.359-30.578 28.893 55.137zM545.934 323.281l58.749 36.357 61.638-23.836-20.706-54.174-35.874-23.595-63.805 65.249zM642.484 273.681l-13.483-35.393-15.891 16.132 29.374 19.261zM649.707 278.497l61.397 40.208 9.39-3.612-14.205-155.779-73.435 75.121 16.854 44.061zM704.12 137.886l-0.481-4.334-2.648-0.241 3.13 4.575zM709.899 146.795l0.722 0.964 12.038-12.521-13.965-1.445 1.203 13.002zM806.689 49.283l22.873-23.355-26.484-10.593 3.612 33.949zM807.411 55.784l8.909 83.788 25.281 2.408 44.302-72.473v-20.706l-51.526-20.706-26.967 27.689zM885.904 43.504v-66.934c-0.241-0.241-0.481-0.241-0.722-0.481l-46.95 48.154 47.673 19.261zM794.17 928.339h82.585c0.964-1.926 2.167-3.612 3.853-5.297 0.722-0.722 1.445-1.445 2.167-1.926l-77.529-96.79-31.541 26.726 6.020 66.212c6.26 1.686 11.557 5.779 14.446 11.076zM756.368 928.339c3.612-6.742 10.354-11.316 18.539-11.557l-5.537-61.878-86.436 73.195h73.435zM634.056 439.813l-9.39-3.13-40.45 41.653 17.094 32.263 34.912-54.896c-1.926-3.13-2.889-6.982-2.889-10.593 0-1.686 0.241-3.612 0.722-5.297zM558.213 557.069c4.093-6.26 11.076-9.871 18.058-9.871 0.481 0 1.203 0 1.926 0.241l14.446-22.633-40.931-12.76-0.722 0.722 3.853 71.028 2.889-4.575c-3.853-6.742-3.853-15.169 0.481-22.15zM535.581 613.891l-68.861 6.020 26.726 51.043c1.445-0.241 2.889-0.481 4.334-0.481 0.722 0 1.203 0 1.926 0.241l35.874-56.822zM419.289 793.747c0.722 0 1.203 0 1.926 0.241l17.336-27.207-22.873-23.595-7.945 54.415c3.37-2.648 7.464-3.853 11.557-3.853zM382.691 853.94l-45.265-19.984 7.223 79.455 38.041-59.471zM254.36 928.339h67.656c0.964-1.926 2.167-3.612 3.853-5.297s3.853-3.13 6.020-4.093l-57.063-105.939-30.096 106.18c4.093 1.926 7.464 5.297 9.631 9.149zM216.558 928.339c1.926-3.612 4.575-6.501 7.945-8.427l-38.041-32.023-38.283 39.246c0.241 0.481 0.481 0.722 0.722 1.203h67.656zM231.727-32.339h-54.174l78.491 32.263-1.926-21.188c-1.203 0.241-2.167 0.241-3.37 0.241-8.427 0-15.65-4.575-19.021-11.316zM258.694-22.707l2.167 22.392 82.103-32.023h-73.676c-2.167 4.334-6.020 7.704-10.593 9.631zM390.396 442.221l52.007-19.984 17.817-18.058 2.889-20.225-31.301-10.354-42.617 66.934c0.722 0.241 0.964 0.964 1.203 1.686zM467.443 338.931c-4.334 6.982-12.279 10.354-19.744 9.871l-13.002 20.225 29.134 9.631 10.593-72.231-6.501 10.354c3.853 6.742 4.093 15.169-0.481 22.15zM526.191 225.527l-39.246 61.638 48.636 29.856-5.056-91.734c-1.445 0.241-2.889 0.241-4.334 0.241zM547.861 211.803l61.155 39.969 18.058-18.539-39.727-103.772-40.931 64.045c3.13 5.537 3.853 12.279 1.445 18.299zM624.426 92.38c-4.334 6.982-12.279 10.354-19.744 9.871l-9.871 15.41 96.79 9.631-51.765-80.177-14.927 23.355c3.853 6.501 4.093 14.927-0.481 21.911zM683.173-21.023l-40.45 63.564 55.137 85.474 5.537 0.481-13.483-150c-1.445 0.481-3.13 0.481-4.815 0.481-0.722 0-1.445 0-1.926 0zM771.537-32.339h-67.656c-0.241 0.722-0.722 1.445-1.203 1.926l94.623 38.283-3.13-29.134c-1.203 0.241-2.408 0.481-3.853 0.481-8.187-0.241-15.41-4.815-18.78-11.557zM876.753-32.339h-67.416c-2.167 4.334-5.779 7.704-10.354 9.631l3.612 32.504 30.818 12.521 47.914-49.117c-0.241-0.241-0.241-0.241-0.481-0.481-1.686-1.445-3.13-3.13-4.093-5.056z" />
<glyph unicode="&#xe901;" glyph-name="record" d="M800 661.333c-123.733 0-224-100.267-224-224 0-61.867 25.6-119.467 68.267-160h-264.533c40.533 40.533 68.267 98.133 68.267 160 0 123.733-100.267 224-224 224s-224-100.267-224-224 100.267-224 224-224h576c123.733 0 224 100.267 224 224s-100.267 224-224 224zM64 437.333c0 87.467 72.533 160 160 160s160-72.533 160-160-72.533-160-160-160-160 72.533-160 160zM800 277.333c-87.467 0-160 72.533-160 160s72.533 160 160 160 160-72.533 160-160-72.533-160-160-160z" />
<glyph unicode="&#xe902;" glyph-name="text-bubble" horiz-adv-x="1014" d="M354.901-59.001c-28.001 0-50.701 22.7-50.701 50.701v152.101h-202.801c-56.002 0-101.4 45.398-101.4 101.4v608.403c0 56.277 45.63 101.4 101.4 101.4h811.204c56.002 0 101.4-45.398 101.4-101.4v-608.403c0-56.002-45.398-101.4-101.4-101.4h-309.272l-187.591-188.097c-10.14-9.633-22.815-14.703-35.491-14.703v0h-25.35zM405.601 245.2v-156.156l156.156 156.156h350.845v608.403h-811.204v-608.403h304.201zM202.8 701.502h608.403v-101.4h-608.403v101.4zM202.8 498.702h456.302v-101.4h-456.302v101.4z" />
<glyph unicode="&#xe903;" glyph-name="people-three" horiz-adv-x="1013" d="M506.501 785.67c92.86 0 168.835-75.976 168.835-168.835s-75.976-168.835-168.835-168.835-168.835 75.976-168.835 168.835 75.976 168.835 168.835 168.835zM506.501 363.583c185.718 0 337.67-75.976 337.67-168.835v-84.417h-675.34v84.417c0 92.86 151.952 168.835 337.67 168.835zM185.714 701.253c50.651 0 92.86-37.988 92.86-88.638s-42.209-88.638-92.86-88.638-92.86 42.209-92.86 88.638 42.209 88.638 92.86 88.638zM185.714 481.767c105.522 0 185.718-37.988 185.718-88.638v-42.209h-371.437v42.209c0 50.651 84.417 88.638 185.718 88.638zM827.288 701.253c50.651 0 92.86-37.988 92.86-88.638s-42.209-88.638-92.86-88.638-92.86 37.988-92.86 88.638 37.988 88.638 92.86 88.638zM827.288 481.767c105.522 0 185.718-37.988 185.718-88.638v-42.209h-375.658v42.209c0 50.651 84.417 88.638 189.939 88.638z" />
<glyph unicode="&#xe904;" glyph-name="dial-pad" d="M512 122.181c-51.412 0-93.091-41.678-93.091-93.091s41.678-93.091 93.091-93.091c51.412 0 93.091 41.678 93.091 93.091s-41.678 93.091-93.091 93.091zM232.727 960c-51.412 0-93.091-41.678-93.091-93.091s41.678-93.091 93.091-93.091c51.412 0 93.091 41.678 93.091 93.091s-41.678 93.091-93.091 93.091zM232.727 680.727c-51.412 0-93.091-41.678-93.091-93.091s41.678-93.091 93.091-93.091c51.412 0 93.091 41.678 93.091 93.091s-41.678 93.091-93.091 93.091zM232.727 401.454c-51.412 0-93.091-41.678-93.091-93.091s41.678-93.091 93.091-93.091c51.412 0 93.091 41.678 93.091 93.091s-41.678 93.091-93.091 93.091zM791.273 773.819c51.412 0 93.091 41.678 93.091 93.091s-41.678 93.091-93.091 93.091c-51.412 0-93.091-41.678-93.091-93.091s41.678-93.091 93.091-93.091zM512 401.454c-51.412 0-93.091-41.678-93.091-93.091s41.678-93.091 93.091-93.091c51.412 0 93.091 41.678 93.091 93.091s-41.678 93.091-93.091 93.091zM791.273 401.454c-51.412 0-93.091-41.678-93.091-93.091s41.678-93.091 93.091-93.091c51.412 0 93.091 41.678 93.091 93.091s-41.678 93.091-93.091 93.091zM791.273 680.727c-51.412 0-93.091-41.678-93.091-93.091s41.678-93.091 93.091-93.091c51.412 0 93.091 41.678 93.091 93.091s-41.678 93.091-93.091 93.091zM512 680.727c-51.412 0-93.091-41.678-93.091-93.091s41.678-93.091 93.091-93.091c51.412 0 93.091 41.678 93.091 93.091s-41.678 93.091-93.091 93.091zM512 960c-51.412 0-93.091-41.678-93.091-93.091s41.678-93.091 93.091-93.091c51.412 0 93.091 41.678 93.091 93.091s-41.678 93.091-93.091 93.091z" />
<glyph unicode="&#xe905;" glyph-name="envelope" horiz-adv-x="1015" d="M913.508 651.004l-406.007-253.754-406.007 253.754v101.501l406.007-253.754 406.007 253.754zM913.508 854.007h-812.015c-56.334 0-101.501-45.168-101.501-101.501v-609.011c0-56.058 45.444-101.501 101.501-101.501h812.015c56.058 0 101.501 45.444 101.501 101.501v609.011c0 56.334-45.676 101.501-101.501 101.501z" />
<glyph unicode="&#xe906;" glyph-name="end-call" horiz-adv-x="1020" d="M510 551.275c-68 0-133.875-10.625-195.501-30.6v-131.751c0-17-9.775-31.45-23.8-38.25-41.65-20.825-79.475-47.6-113.475-78.625-7.225-7.65-17.85-12.325-28.475-12.325-12.75 0-23.375 5.1-31.025 12.75l-105.4 105.4c-7.65 7.65-12.325 18.275-12.325 29.75 0 11.9 4.675 22.525 12.325 30.175 129.625 123.25 304.726 198.475 497.676 198.475s368.050-75.225 497.676-198.475c7.65-7.65 12.325-18.275 12.325-30.175 0-11.475-4.675-22.1-12.325-29.75l-105.4-105.4c-7.65-7.65-18.275-12.75-31.025-12.75-10.625 0-21.25 4.675-28.9 12.325-33.575 31.025-71.4 57.8-113.050 78.625-14.025 6.8-23.8 21.25-23.8 38.25v131.751c-61.625 19.975-127.5 30.6-195.501 30.6z" />
<glyph unicode="&#xe907;" glyph-name="right-arrow" horiz-adv-x="1014" d="M-0.002 512.016v-128.030h768.185l-352.085-352.085 90.902-90.902 507.002 507.002-507.002 507.002-90.902-90.902 352.085-352.085h-768.185z" />
<glyph unicode="&#xe908;" glyph-name="linkedin" d="M910.223 959.999c62.837 0 113.777-50.94 113.777-113.777v-796.445c0-62.837-50.94-113.777-113.777-113.777h-796.445c-62.837 0-113.777 50.94-113.777 113.777v796.445c0 62.837 50.94 113.777 113.777 113.777h796.445zM881.778 78.221v301.511c0 102.425-83.032 185.458-185.458 185.458-48.356 0-104.676-29.583-131.983-73.956v63.147h-158.72v-476.161h158.72v280.463c0 43.804 35.271 79.644 79.076 79.644 43.987 0 79.644-35.659 79.644-79.644v-280.463h158.72zM220.729 643.696c52.784 0 95.573 42.789 95.573 95.573 0 52.907-42.667 96.143-95.573 96.143-53.097 0-96.143-43.044-96.143-96.143 0-52.907 43.236-95.573 96.143-95.573zM299.804 78.221v476.161h-157.583v-476.161h157.583z" />
<glyph unicode="&#xe909;" glyph-name="phone" horiz-adv-x="1032" d="M209.937 516.835c81.92-160.996 213.903-292.977 374.897-374.897l125.156 125.156c15.929 15.929 38.116 20.48 58.027 14.223 63.716-21.049 131.983-32.427 203.093-32.427 31.419 0 56.889-25.471 56.889-56.889v-199.111c0-31.419-25.471-56.889-56.889-56.889-534.121 0-967.111 432.991-967.111 967.111 0 31.419 25.471 56.889 56.889 56.889h199.111c31.419 0 56.889-25.471 56.889-56.889 0-71.111 11.377-139.377 32.427-203.093 6.257-19.911 1.707-42.097-14.223-58.027l-125.156-125.156z" />
<glyph unicode="&#xe90a;" glyph-name="clock" horiz-adv-x="1028" d="M514 38.401c226.215 0 409.599 183.384 409.599 409.599s-183.384 409.599-409.599 409.599c-226.215 0-409.599-183.384-409.599-409.599s183.384-409.599 409.599-409.599zM514 960c282.769 0 512-229.23 512-512s-229.23-512-512-512c-283.136 0-512 230.4-512 512 0 282.769 229.23 512 512 512zM539.6 703.999v-268.8l230.4-136.704-38.4-62.976-268.8 161.28v307.2h76.8z" />
<glyph unicode="&#xe90b;" glyph-name="phone-volume" horiz-adv-x="1023" d="M682.001 448h113.667c0 156.942-127.227 284.168-284.168 284.168v-113.667c94.165 0 170.501-76.337 170.501-170.501zM909.337 448h113.667c0 284.168-229.040 511.504-511.504 511.504v-113.667c219.378 0 397.837-177.89 397.837-397.837zM966.17 249.082c-71.042 0-139.242 11.366-202.896 32.395-19.891 6.251-42.057 1.705-57.97-14.209l-125.035-125.035c-160.84 81.841-292.693 213.695-374.534 374.534l125.035 125.035c15.914 15.914 20.46 38.079 14.209 57.97-21.029 63.654-32.395 131.855-32.395 202.896 0 31.388-25.446 56.834-56.834 56.834h-198.918c-31.388 0-56.834-25.446-56.834-56.834 0-533.604 432.571-966.173 966.173-966.173 31.388 0 56.834 25.446 56.834 56.834v198.918c0 31.388-25.446 56.834-56.834 56.834z" />
<glyph unicode="&#xe90c;" glyph-name="chevron-up" d="M120.32 131.84l391.68 390.826 391.68-390.826 120.32 120.32-512 512-512-512 120.32-120.32z" />
<glyph unicode="&#xe90d;" glyph-name="chevron-down" d="M120.32 764.586l391.68-391.68 391.68 391.68 120.32-121.174-512-512-512 512 120.32 121.174z" />
<glyph unicode="&#xe90e;" glyph-name="chevron-left" d="M828.16 57.174l-390.826 390.826 390.826 391.68-120.32 120.32-512-512 512-512 120.32 121.174z" />
<glyph unicode="&#xe90f;" glyph-name="chevron-right" d="M195.84 57.174l390.826 390.826-390.826 391.68 120.32 120.32 512-512-512-512-120.32 121.174z" />
<glyph unicode="&#xe910;" glyph-name="calendar" d="M870.401 38.399h-716.801v563.2h716.801zM716.801 960v-102.4h-409.6v102.4h-102.4v-102.4h-51.2c-56.832 0-102.4-45.568-102.4-102.4v-716.801c0-56.554 45.846-102.4 102.4-102.4h716.801c56.554 0 102.4 45.846 102.4 102.4v716.801c0 56.832-46.080 102.4-102.4 102.4h-51.2v102.4zM768 396.8h-256v-256h256v256z" />
<glyph unicode="&#xe911;" glyph-name="radio-button" d="M64 448v0c0-247.467 200.533-448 448-448s448 200.533 448 448c0 247.467-200.533 448-448 448s-448-200.533-448-448v0zM0 448c0 283.733 228.267 512 512 512s512-228.267 512-512c0-283.733-228.267-512-512-512s-512 228.267-512 512v0zM512 768v0c177.067 0 320-142.933 320-320v0c0-177.067-142.933-320-320-320v0c-177.067 0-320 142.933-320 320v0c0 177.067 142.933 320 320 320z" />
<glyph unicode="&#xe912;" glyph-name="radio-button-empty" d="M64 448v0c0-247.467 200.533-448 448-448s448 200.533 448 448c0 247.467-200.533 448-448 448s-448-200.533-448-448v0zM0 448c0 283.733 228.267 512 512 512s512-228.267 512-512c0-283.733-228.267-512-512-512s-512 228.267-512 512v0z" />
<glyph unicode="&#xe913;" glyph-name="check-box-empty" d="M910.223 959.999h-796.445c-63.147 0-113.777-50.631-113.777-113.777v-796.445c0-62.837 50.94-113.777 113.777-113.777h796.445c62.837 0 113.777 50.94 113.777 113.777v796.445c0 63.147-51.2 113.777-113.777 113.777zM910.223 846.222v-796.445h-796.445v796.445h796.445z" />
<glyph unicode="&#xe914;" glyph-name="download" horiz-adv-x="1018" d="M721.086 405.583l-212.086-212.086-212.086 212.086h127.252v169.669h169.669v-169.669zM820.767 531.563c-28.843 145.915-157.368 255.776-311.767 255.776-122.586 0-229.053-69.564-282.074-170.942-127.676-13.998-226.933-121.737-226.933-253.231 0-140.559 113.945-254.504 254.504-254.504h551.424c117.132 0 212.086 94.955 212.086 212.086 0 111.982-86.956 202.755-197.24 210.813z" />
<glyph unicode="&#xe915;" glyph-name="check-outline" d="M326.621 66.207l83.862-77.241 22.069-19.862 17.655 24.276 66.207 92.69 496.552 701.793-22.069 15.448-163.31 110.345-22.069 13.241-15.448-19.862-397.241-556.138-229.517 207.448-154.483-158.897-19.862-19.862 19.862-17.655 317.793-295.724zM64 377.379l99.31 103.724 236.138-211.862 417.103 584.828 121.379-79.448-514.207-728.276-359.724 331.034z" />
<glyph unicode="&#xe916;" glyph-name="bolt" d="M256 959.999v-563.2h153.6v-460.8l358.401 614.4h-204.8l204.8 409.6h-512.001z" />
<glyph unicode="&#xe917;" glyph-name="text-bubbles" d="M512.001-64c-25.706 0-46.546 20.84-46.546 46.546v139.636h-186.182c-51.412 0-93.091 41.678-93.091 93.091v465.455c0 51.665 41.891 93.091 93.091 93.091h651.636c51.412 0 93.091-41.678 93.091-93.091v-465.455c0-51.412-41.678-93.091-93.091-93.091h-190.836l-172.219-172.683c-9.309-8.844-20.945-13.498-32.582-13.498v0h-23.272zM558.546 215.273v-143.36l143.36 143.36h229.004v465.455h-651.636v-465.455h279.273zM93.091 308.364h-93.091v558.546c0 51.412 41.678 93.091 93.091 93.091h744.728v-93.091h-744.728v-558.546z" />
<glyph unicode="&#xe918;" glyph-name="check-box" d="M398.223 163.554l-284.444 284.444 80.213 80.783 204.231-204.231 431.787 431.787 80.213-80.783zM910.223 959.999h-796.445c-63.147 0-113.777-50.631-113.777-113.777v-796.445c0-62.837 50.94-113.777 113.777-113.777h796.445c62.837 0 113.777 50.94 113.777 113.777v796.445c0 63.147-51.2 113.777-113.777 113.777z" />
<glyph unicode="&#xe919;" glyph-name="check" horiz-adv-x="1010" d="M1010.004 753.599l-692.575-692.575-317.431 317.431 81.378 81.378 236.053-235.476 611.198 610.62 81.378-81.378z" />
<glyph unicode="&#xe91a;" glyph-name="buildings" d="M819.201 294.4h-102.4v-102.4h102.4zM819.201 499.2h-102.4v-102.4h102.4zM921.6 89.599h-409.6v102.4h102.4v102.4h-102.4v102.4h102.4v102.4h-102.4v102.4h409.6zM409.601 704h-102.4v102.4h102.4zM409.601 499.2h-102.4v102.4h102.4zM409.601 294.4h-102.4v102.4h102.4zM409.601 89.599h-102.4v102.4h102.4zM204.8 704h-102.4v102.4h102.4zM204.8 499.2h-102.4v102.4h102.4zM204.8 294.4h-102.4v102.4h102.4zM204.8 89.599h-102.4v102.4h102.4zM512.001 704v204.8h-512.001v-921.6h1024v716.8h-512.001z" />
<glyph unicode="&#xe91b;" glyph-name="insidesales-logo" d="M385.024 410.795c-36.864 0-62.805-29.355-62.805-65.877v-0.341c0-36.523 26.624-66.219 63.488-66.219s62.805 29.355 62.805 65.877v0.341c0 36.523-26.624 66.219-63.488 66.219zM0 960v-1024h1024v1024h-1024zM705.195 798.891v0h116.395v-16.384h-97.963v-54.955h87.723v-16.384h-87.723v-56.32h98.987v-16.384h-117.419v160.427zM537.6 798.891h55.637c50.517 0 85.333-34.816 85.333-79.872v-0.341c0-45.056-34.816-80.213-85.333-80.213h-55.637v160.427zM484.011 798.891h18.091v-160.768h-18.091v160.768zM547.157 483.157v-32.085h-115.371v160.768h35.157v-128.683h80.213zM396.629 710.485c-36.864 8.192-53.931 19.797-53.931 46.421v0.341c0 25.259 22.187 43.691 52.907 43.691 23.552 0 40.277-6.485 56.32-19.797l-10.581-13.995c-15.019 12.288-29.696 17.408-46.421 17.408-20.821 0-34.133-11.605-34.133-25.941 0-15.019 8.192-23.552 43.691-31.061 35.84-7.851 52.224-20.821 52.224-45.397v-0.341c0-27.648-22.869-45.397-54.955-45.397-25.259-0.341-46.080 8.192-65.536 25.259l11.264 13.312c16.725-15.019 32.768-22.869 54.955-22.869 21.504 0 35.84 11.605 35.84 27.307v0.683c0 15.019-8.192 23.552-41.643 30.379zM412.331 451.413h-36.864l-14.677 36.181h-67.925l-14.677-36.181h-35.84l68.608 161.792h32.427l68.949-161.792zM177.152 798.891h17.067l101.376-128.683v128.683h17.749v-160.768h-14.336l-104.107 132.096v-131.755h-17.749v160.427zM123.221 798.891h18.091v-160.768h-18.091v160.768zM166.912 516.267c-32.427 8.192-53.248 17.067-53.248 49.152v0.341c0 29.013 23.552 48.469 56.32 48.469 23.552 0 43.349-7.509 59.733-20.48l-18.432-26.624c-14.336 9.899-28.331 15.701-41.643 15.701s-20.821-6.144-20.821-13.995v-0.341c0-10.581 6.827-13.995 34.816-21.163 32.427-8.533 50.859-20.139 50.859-48.128v-0.341c0-31.744-24.235-49.835-59.051-49.835-24.235 0-48.811 8.533-68.267 25.6l20.821 24.917c14.336-11.947 29.696-19.456 48.128-19.456 14.336 0 23.211 5.803 23.211 15.019v0.683c0 8.875-5.461 13.653-32.427 20.48zM137.899 264.021h-21.163v24.235h21.163v-24.235zM231.083 261.632c-46.763 0-80.896 36.523-80.896 82.603v0.341c0 45.397 34.133 82.944 81.237 82.944 29.013 0 46.421-10.24 62.805-25.6l-12.288-13.312c-13.653 12.971-28.672 22.187-50.517 22.187-35.499 0-62.123-29.013-62.123-65.877v-0.341c0-37.205 26.965-66.219 62.123-66.219 22.187 0 36.523 8.533 51.883 23.211l11.947-11.605c-16.725-17.067-35.157-28.331-64.171-28.331zM467.285 344.576c0-44.373-33.109-82.944-82.261-82.944s-81.579 38.229-81.579 82.603v0.341c0 44.373 33.109 82.944 82.261 82.944 48.811 0 81.579-38.229 81.579-82.603 0.341-0.341 0.341-0.341 0-0.341zM646.485 264.021h-18.091v130.048l-58.368-85.675h-1.024l-58.368 85.675v-130.048h-17.749v160.768h18.432l58.368-87.723 58.368 87.723h18.432v-160.768zM690.517 451.413h-122.197v160.427h120.832v-31.403h-86.016v-32.427h75.776v-31.403h-75.776v-33.792h87.381v-31.403zM832.171 498.859c0-31.744-24.235-49.835-59.051-49.835-24.235 0-48.811 8.533-68.267 25.6l20.821 24.917c14.336-11.947 29.696-19.456 48.128-19.456 14.336 0 23.211 5.803 23.211 15.019v0.683c0 8.875-5.461 13.653-32.427 20.48-32.427 8.192-53.248 17.067-53.248 49.152v0.341c0 29.013 23.552 48.469 56.32 48.469 23.552 0 43.349-7.509 59.733-20.48l-18.432-26.624c-14.336 9.899-28.331 15.701-41.643 15.701-13.653 0-20.821-6.144-20.821-13.995v-0.341c0-10.581 6.827-13.995 34.816-21.163 32.427-8.533 50.859-20.139 50.859-48.469v0zM305.152 518.656h43.008l-21.504 52.224zM659.797 718.336v0c0 35.84-25.941 63.829-66.56 63.829h-37.547v-126.976h37.547c40.619 0 66.56 27.648 66.56 63.147z" />
<glyph unicode="&#xe91c;" glyph-name="paperclip" d="M698.182 727.273v-535.273c0-102.826-83.356-186.182-186.182-186.182s-186.182 83.356-186.182 186.182v581.818c0 64.265 52.097 116.364 116.364 116.364s116.364-52.097 116.364-116.364v-488.727c0-25.706-20.84-46.546-46.546-46.546s-46.546 20.84-46.546 46.546v442.181h-69.818v-442.181c0-64.265 52.097-116.364 116.364-116.364s116.364 52.097 116.364 116.364v488.727c0 102.826-83.356 186.182-186.182 186.182s-186.182-83.356-186.182-186.182v-581.818c0-141.385 114.615-256 256-256s256 114.615 256 256v535.273h-69.818z" />
<glyph unicode="&#xe91d;" glyph-name="x" d="M1024 856.869l-103.131 103.131-408.869-408.869-408.869 408.869-103.131-103.131 408.869-408.869-408.869-408.869 103.131-103.131 408.869 408.869 408.869-408.869 103.131 103.131-408.869 408.869 408.869 408.869z" />
<glyph unicode="&#xe91e;" glyph-name="cursor" d="M373.169 338.305c25.334 12.16 55.229 1.013 67.389-24.321l116.536-252.834 91.202 43.068-117.043 252.327c-12.16 25.334-1.013 55.734 24.321 67.389l14.187 4.053 116.536 22.801-418.011 351.129v-546.202l92.215 74.482 12.667 8.107zM554.054-51.839c-25.334-12.16-55.734-1.52-67.389 23.814l-110.456 240.166-127.176-102.35c-8.613-7.093-19.253-11.147-31.414-11.147-27.983 0-50.668 22.685-50.668 50.668v760.020c0 27.983 22.685 50.668 50.668 50.668 12.16 0 23.814-4.56 32.428-11.653l0.507 0.507 582.175-488.44c21.788-18.24 24.321-50.161 6.587-71.442-7.6-9.12-18.24-15.2-28.881-17.228l-160.111-31.414 111.47-239.659c13.173-25.334 1.013-55.229-24.321-66.882l-183.418-85.629z" />
<glyph unicode="&#xe91f;" glyph-name="font" d="M907.947 283.306c0-46.080-27.307-90.453-71.68-90.453-30.72-1.707-58.027 20.48-59.733 51.2 0 1.707 0 1.707 0 3.413 0 39.253 35.84 58.027 71.68 58.027 20.48 0 40.96-1.707 61.44-5.12l-1.707-17.067zM861.867 535.893c-52.907 0-104.107-8.533-153.6-29.013l13.653-95.573c34.133 18.773 71.68 27.307 110.933 29.013 49.493 0 75.093-22.187 75.093-56.32v-8.533h-1.707c-23.893 3.413-46.080 3.413-69.973 3.413-97.28 0-160.427-51.2-160.427-143.36 0-95.573 61.44-136.533 114.347-136.533 46.080-3.413 90.453 18.773 116.053 58.027h1.707l1.707-51.2h114.347v279.893c0 93.867-61.44 150.187-162.133 150.187zM245.76 800.426l-245.76-696.32h131.413c0 0 22.187 69.973 54.613 163.84h232.107l52.907-163.84h141.653l-242.347 696.32h-124.587zM223.573 383.999c6.827 22.187 23.893 68.267 23.893 68.267 22.187 66.56 40.96 134.827 54.613 204.8h1.707c13.653-69.973 32.427-138.24 54.613-204.8l22.187-68.267h-157.013z" />
<glyph unicode="&#xe920;" glyph-name="gear" d="M512.257 268.802c-98.97 0-179.199 80.23-179.199 179.199s80.23 179.199 179.199 179.199c98.97 0 179.199-80.23 179.199-179.199s-80.23-179.199-179.199-179.199zM892.671 398.337c2.048 16.384 3.584 32.768 3.584 49.664s-1.536 33.792-3.584 51.2l108.032 83.456c9.728 7.68 12.288 21.504 6.144 32.768l-102.399 177.152c-6.144 11.264-19.968 15.872-31.232 11.264l-127.487-51.2c-26.624 19.968-54.272 37.376-86.528 50.175l-18.944 135.68c-2.048 12.288-12.8 21.504-25.599 21.504h-204.799c-12.8 0-23.552-9.216-25.599-21.504l-18.944-135.68c-32.256-12.8-59.904-30.207-86.528-50.175l-127.487 51.2c-11.264 4.608-25.088 0-31.232-11.264l-102.399-177.152c-6.656-11.264-3.584-25.088 6.144-32.768l108.032-83.456c-2.048-17.408-3.584-34.304-3.584-51.2s1.536-33.279 3.584-49.664l-108.032-84.992c-9.728-7.68-12.8-21.504-6.144-32.768l102.399-177.152c6.144-11.264 19.968-15.36 31.232-11.264l127.487 51.711c26.624-20.48 54.272-37.887 86.528-50.688l18.944-135.68c2.048-12.288 12.8-21.504 25.599-21.504h204.799c12.8 0 23.552 9.216 25.599 21.504l18.944 135.68c32.256 13.312 59.904 30.207 86.528 50.688l127.487-51.711c11.264-4.096 25.088 0 31.232 11.264l102.399 177.152c6.144 11.264 3.584 25.088-6.144 32.768l-108.032 84.992z" />
<glyph unicode="&#xe921;" glyph-name="phone-arrow" d="M56.889 959.998c-31.419 0-56.889-25.471-56.889-56.889 0-534.121 432.99-967.109 967.109-967.109 31.419 0 56.889 25.471 56.889 56.889v199.11c0 31.419-25.471 56.889-56.889 56.889-71.111 0-139.377 11.377-203.093 32.427-19.911 6.257-42.097 1.707-58.027-13.653l-125.156-125.156c-160.996 81.92-292.977 213.333-374.897 374.897l125.156 125.724c15.929 14.791 20.48 36.977 14.223 56.889-21.049 63.716-32.427 131.982-32.427 203.093 0 31.419-25.471 56.889-56.889 56.889h-199.11zM910.221 504.888v85.333h-199.11l312.889 312.889-56.889 56.889-312.889-312.889v199.11h-85.333v-341.333h341.333z" />
<glyph unicode="&#xe922;" glyph-name="info" d="M460.8 601.6h102.4v102.4h-102.4zM512 38.401c-225.792 0-409.599 183.807-409.599 409.599s183.807 409.599 409.599 409.599c225.792 0 409.599-183.807 409.599-409.599s-183.807-409.599-409.599-409.599zM512 960c-282.769 0-512-229.23-512-512s229.23-512 512-512c282.769 0 512 229.23 512 512s-229.23 512-512 512zM460.8 192.001h102.4v307.2h-102.4v-307.2z" />
<glyph unicode="&#xe923;" glyph-name="face-neutral" d="M332.801 499.2c-42.415 0-76.8 34.385-76.8 76.8s34.385 76.8 76.8 76.8c42.415 0 76.8-34.385 76.8-76.8s-34.385-76.8-76.8-76.8zM691.199 499.2c-42.415 0-76.8 34.385-76.8 76.8s34.385 76.8 76.8 76.8c42.415 0 76.8-34.385 76.8-76.8s-34.385-76.8-76.8-76.8zM512 38.401c226.215 0 409.599 183.384 409.599 409.599s-183.384 409.599-409.599 409.599c-226.215 0-409.599-183.384-409.599-409.599s183.384-409.599 409.599-409.599zM512 960c282.769 0 512-229.23 512-512s-229.23-512-512-512c-283.136 0-512 230.4-512 512 0 282.769 229.23 512 512 512zM358.4 345.6h307.2c28.277 0 51.2-22.924 51.2-51.2s-22.924-51.2-51.2-51.2h-307.2c-28.277 0-51.2 22.924-51.2 51.2s22.924 51.2 51.2 51.2z" />
<glyph unicode="&#xe924;" glyph-name="medal" d="M651.636 488.339h-252.897l311.855 471.661h252.897l-311.855-471.661zM456.145 519.37h178.424l271.515 409.6h-178.424l-271.515-409.6zM595.782 488.339h-223.418l-311.855 471.661h252.897l211.006-319.612-24.824-17.067-203.248 305.648h-178.424l271.515-409.6h206.352zM681.115 407.661h-31.030v80.679h-276.17v-80.679h-31.030v111.709h338.23zM512-64c-148.945 0-269.964 121.018-269.964 269.964s121.018 269.964 269.964 269.964c148.945 0 269.964-121.018 269.964-269.964 0 0 0 0 0 0-1.552-148.945-121.018-269.964-269.964-269.964zM512 443.345c-131.879 0-238.933-107.055-238.933-238.933s107.055-238.933 238.933-238.933 238.933 107.055 238.933 238.933c0 0 0 0 0 0-1.552 131.879-107.055 238.933-238.933 238.933zM512-0.388c-113.261 0-204.8 91.539-204.8 204.8s91.539 204.8 204.8 204.8 204.8-91.539 204.8-204.8c0-111.709-91.539-204.8-204.8-204.8zM512 379.733c-96.194 0-173.77-77.576-173.77-173.77s77.576-173.77 173.77-173.77 173.77 77.576 173.77 173.77c0 0 0 0 0 0 0 94.642-77.576 173.77-173.77 173.77zM592.679 83.394l-80.679 43.442-80.679-43.442 15.515 89.988-65.164 63.612 89.988 13.964 40.339 82.23 40.339-82.23 89.988-13.964-65.164-63.612 15.515-89.988zM512 160.97l40.339-21.721-7.758 43.442 32.582 31.030-44.994 6.206-20.17 41.891-20.17-40.339-44.994-6.206 32.582-31.030-7.758-44.994 40.339 21.721z" />
<glyph unicode="&#xe925;" glyph-name="minus" d="M0 550.4h1024v-204.8h-1024v204.8z" />
<glyph unicode="&#xe926;" glyph-name="icosahedron" d="M1024 630.117c0 11.183-9.585 20.768-20.768 20.768-4.793 0-9.585-1.598-12.78-4.793l-325.891 241.223c1.598 3.195 3.195 6.39 3.195 9.585 0 11.183-7.988 20.768-19.17 20.768s-20.768-7.988-20.768-19.17c0-3.195 0-4.793 1.598-7.988l-159.75-89.46-11.183-1.598-284.356 51.12c-1.598 9.585-9.585 15.975-19.17 15.975-11.183 0-19.17-9.585-19.17-20.768 0-7.988 4.793-14.378 12.78-17.573l-31.95-196.493-78.278-36.743c-3.195 6.39-9.585 9.585-17.573 11.183-11.183 0-20.768-9.585-20.768-19.17 0-11.183 9.585-20.768 19.17-20.768 4.793 0 11.183 1.598 14.378 6.39l65.498-46.328-22.365-143.775c-9.585-1.598-15.975-9.585-15.975-19.17 0-11.183 9.585-20.768 20.768-20.768 6.39 0 12.78 3.195 17.573 9.585l170.933-91.058 89.46-115.020c-1.598-3.195-3.195-6.39-3.195-11.183 0-12.78 9.585-23.963 22.365-23.963 11.183 0 19.17 7.988 22.365 17.573l313.111 55.913c4.793-4.793 9.585-6.39 15.975-6.39 12.78 0 22.365 11.183 22.365 22.365 0 4.793-1.598 9.585-4.793 14.378l15.975 38.34 55.913-4.793c4.793-9.585 17.573-14.378 27.158-7.988s14.378 17.573 7.988 27.158c-3.195 6.39-7.988 9.585-15.975 11.183l-14.378 126.203 43.133 107.033c12.78 1.598 22.365 12.78 20.768 25.56-1.598 11.183-9.585 20.768-20.768 20.768-3.195 0-4.793 0-6.39-1.598l-222.053 254.003c1.598 3.195 1.598 6.39 1.598 9.585 0 12.78-9.585 23.963-22.365 23.963v0c-11.183 0-20.768-7.988-22.365-17.573l-95.85-19.17 137.385 76.68c3.195-3.195 7.988-4.793 12.78-4.793s7.988 1.598 11.183 3.195l327.488-241.223c-4.793-9.585 0-20.768 9.585-25.56 1.598 0 3.195-1.598 3.195-1.598l-113.423-436.118c-11.183-1.598-17.573-11.183-17.573-20.768 0-1.598 1.598-4.793 1.598-6.39l-207.675-135.788c-7.988 7.988-20.768 7.988-27.158 0-1.598-1.598-3.195-3.195-3.195-4.793l-429.728 36.743c-1.598 9.585-9.585 15.975-19.17 15.975-11.183 0-20.768-9.585-20.768-20.768s9.585-20.768 20.768-20.768c7.988 0 15.975 6.39 19.17 14.378l426.533-36.743c0-11.183 9.585-20.768 20.768-20.768s20.768 9.585 20.768 20.768c0 3.195 0 4.793-1.598 7.988l209.273 137.385c3.195-3.195 7.988-4.793 12.78-4.793 11.183 1.598 19.17 11.183 17.573 22.365 0 7.988-4.793 12.78-12.78 15.975l113.423 436.118c6.39-1.598 12.78 6.39 12.78 15.975zM610.246 796.258l15.975-103.838c-3.195-1.598-4.793-3.195-6.39-6.39l-289.148 67.095 265.186 52.718c4.793-4.793 9.585-9.585 14.378-9.585zM653.379 654.080l190.103-119.813c0-1.598 0-1.598 0-3.195 0-4.793 1.598-7.988 3.195-11.183l-154.958-218.858-41.535 353.048h3.195zM392.986 147.671c-3.195 3.195-6.39 4.793-9.585 6.39l-46.328 242.821c1.598 0 3.195 1.598 3.195 3.195l321.098-124.605-268.381-127.8zM282.758 716.383l30.353-281.161c-4.793-1.598-7.988-6.39-9.585-11.183h-126.203c-1.598 3.195-3.195 4.793-4.793 7.988l110.228 284.356zM616.636 670.055c0-1.598 1.598-4.793 1.598-6.39l-282.758-228.443c-1.598 0-3.195 1.598-4.793 1.598l-31.95 297.136c3.195 1.598 4.793 3.195 6.39 6.39l311.513-70.29zM177.323 406.467h126.203c3.195-6.39 9.585-11.183 15.975-12.78l43.133-226.846-186.908 238.028c0 0 0 1.598 1.598 1.598zM348.256 416.052c0 1.598 0 3.195-1.598 4.793l285.953 230.041 41.535-356.243c-1.598-1.598-3.195-1.598-4.793-3.195l-321.098 124.605zM145.373 842.585c0 6.39 4.793 12.78 12.78 12.78 6.39 0 12.78-4.793 12.78-12.78s-4.793-12.78-12.78-12.78c-7.988 0-12.78 6.39-12.78 12.78v0zM158.153 823.415c9.585 0 15.975 7.988 17.573 15.975l260.393-47.925-127.8-25.56c-4.793 6.39-11.183 9.585-19.17 9.585-12.78 0-22.365-9.585-22.365-22.365 0-6.39 3.195-12.78 6.39-15.975l-17.573-44.73-127.8-59.108 30.353 190.103zM126.203 622.13l123.008 57.51-78.278-199.688-60.705 44.73 15.975 97.448zM22.365 569.412c-6.39 0-12.78 4.793-12.78 12.78 0 6.39 4.793 12.78 12.78 12.78s12.78-4.793 12.78-12.78v0c-1.598-6.39-6.39-12.78-12.78-12.78 0 0 0 0 0 0v0zM41.535 575.802c0 1.598 1.598 4.793 1.598 6.39 0 0 0 0 0 0l75.083 35.145-14.378-86.265-62.303 44.73zM81.473 345.762c-6.39 0-12.78 4.793-12.78 12.78s4.793 12.78 12.78 12.78 12.78-4.793 12.78-12.78v0c0-7.988-6.39-12.78-12.78-12.78zM100.643 356.944c0 0 0 0 0 0 0 9.585-6.39 17.573-14.378 20.768l22.365 138.983 59.108-43.133-12.78-33.548c-12.78 0-22.365-9.585-22.365-22.365s9.585-22.365 22.365-22.365v0c1.598 0 3.195 0 6.39 1.598l94.253-119.813-154.958 79.875zM670.951 257.899c4.793-4.793 9.585-6.39 15.975-6.39h1.598l22.365-39.938c-3.195-3.195-4.793-9.585-4.793-14.378v0l-261.991-46.328 226.846 107.033zM846.677 256.302c0-6.39-4.793-12.78-12.78-12.78-6.39 0-12.78 4.793-12.78 12.78 0 6.39 4.793 12.78 12.78 12.78s12.78-6.39 12.78-12.78v0zM827.507 273.874c-7.988-3.195-12.78-9.585-12.78-17.573l-49.523 3.195 51.12 124.605 11.183-110.228zM728.461 221.156h-1.598c0 0-1.598 0-1.598 0l-22.365 39.938c6.39 7.988 6.39 17.573 1.598 25.56l121.41 174.128-97.448-239.626zM661.366 668.457c3.195 11.183-3.195 22.365-14.378 23.963-1.598 0-1.598 0-3.195 0l-14.378 92.655 188.505-215.663-156.555 99.045zM183.713 27.859c-6.39 0-12.78 4.793-12.78 12.78s4.793 12.78 12.78 12.78 12.78-4.793 12.78-12.78-6.39-12.78-12.78-12.78v0zM650.184 884.12c-6.39 0-12.78 4.793-12.78 12.78s4.793 12.78 12.78 12.78c6.39 0 12.78-4.793 12.78-12.78v0c-1.598-7.988-6.39-12.78-12.78-12.78zM992.050 630.117c0 6.39 4.793 12.78 12.78 12.78s12.78-4.793 12.78-12.78c0-6.39-4.793-12.78-12.78-12.78s-12.78 6.39-12.78 12.78v0zM650.184-15.274c-6.39 0-12.78 4.793-12.78 12.78s4.793 12.78 12.78 12.78c6.39 0 12.78-4.793 12.78-12.78s-6.39-12.78-12.78-12.78v0zM900.992 155.659c0-6.39-4.793-12.78-12.78-12.78-6.39 0-12.78 4.793-12.78 12.78s4.793 12.78 12.78 12.78c7.988 0 12.78-6.39 12.78-12.78 0 0 0 0 0 0z" />
<glyph unicode="&#xe927;" glyph-name="face-sad" d="M921.599 448c0 226.215-183.384 409.599-409.599 409.599s-409.599-183.384-409.599-409.599c0-226.215 183.384-409.599 409.599-409.599s409.599 183.384 409.599 409.599zM1024 448c0-282.769-229.23-512-512-512s-512 229.23-512 512c0 282.769 229.23 512 512 512s512-229.23 512-512zM691.199 652.8c40.96 0 76.8-35.84 76.8-76.8s-35.84-76.8-76.8-76.8c-40.96 0-76.8 35.84-76.8 76.8s35.84 76.8 76.8 76.8zM409.6 576c0-40.96-35.84-76.8-76.8-76.8s-76.8 35.84-76.8 76.8c0 40.96 35.84 76.8 76.8 76.8s76.8-35.84 76.8-76.8zM512 345.6c89.6 0 168.447-36.864 214.527-92.672l-72.704-72.704c-23.040 37.376-77.824 62.976-141.824 62.976s-118.784-25.6-141.824-62.976l-72.704 72.704c46.080 55.808 124.928 92.672 214.527 92.672z" />
<glyph unicode="&#xe928;" glyph-name="plus" d="M614.4 960h-204.8v-409.6h-409.6v-204.8h409.6v-409.6h204.8v409.6h409.6v204.8h-409.6z" />
<glyph unicode="&#xe929;" glyph-name="search" d="M380.343 960c210.058 0 380.343-170.285 380.343-380.343 0-94.208-34.523-180.809-91.282-247.516l15.799-15.799h46.227l292.571-292.571-87.771-87.771-292.571 292.571v46.227l-15.799 15.799c-66.706-56.759-153.308-91.282-247.516-91.282-210.058 0-380.343 170.285-380.343 380.343s170.285 380.343 380.343 380.343zM380.343 842.972c-146.286 0-263.314-117.028-263.314-263.314s117.028-263.314 263.314-263.314c146.286 0 263.314 117.028 263.314 263.314s-117.028 263.314-263.314 263.314z" />
<glyph unicode="&#xe92a;" glyph-name="face-happy" d="M512 166.4c119.296 0 220.16 74.752 261.632 179.199h-523.263c40.96-104.448 142.335-179.199 261.632-179.199zM332.801 499.2c42.415 0 76.8 34.385 76.8 76.8s-34.385 76.8-76.8 76.8c-42.415 0-76.8-34.385-76.8-76.8s34.385-76.8 76.8-76.8zM691.199 499.2c42.415 0 76.8 34.385 76.8 76.8s-34.385 76.8-76.8 76.8c-42.415 0-76.8-34.385-76.8-76.8s34.385-76.8 76.8-76.8zM512 38.401c-226.215 0-409.599 183.384-409.599 409.599s183.384 409.599 409.599 409.599c226.215 0 409.599-183.384 409.599-409.599s-183.384-409.599-409.599-409.599zM512 960c-283.136 0-512-230.4-512-512 0-282.769 229.23-512 512-512s512 229.23 512 512c0 282.769-229.23 512-512 512z" />
<glyph unicode="&#xe92b;" glyph-name="trophy" d="M888.995 804.617c2.547 25.473 2.547 50.945 2.547 76.418h-764.179c0-25.473 0-50.945 2.547-76.418h-129.91c0-196.139 91.701-356.617 206.328-356.617 5.095 0 10.189 0 15.284 0 63.682-129.91 157.93-216.517 264.915-229.254v-76.418h-50.945v-50.945h-76.418v-76.418h305.672v76.418h-76.418v50.945h-50.945v78.965c104.438 12.736 198.687 99.343 264.915 229.254 5.095 0 10.189 0 15.284 0 114.627 0 206.328 160.478 206.328 356.617h-135.005zM53.492 753.671h81.512c10.189-94.249 33.114-178.308 63.682-254.726-66.229 10.189-132.458 109.532-145.194 254.726zM509.452 295.164c-137.552 0-282.746 201.234-303.124 509.453h606.249c-20.378-308.219-165.572-509.453-303.124-509.453zM822.766 498.945c30.567 73.871 50.945 160.478 63.682 254.726h81.512c-15.284-145.194-81.512-244.537-145.194-254.726z" />
<glyph unicode="&#xe92c;" glyph-name="vision" d="M616.107 816.64c-51.2 0 163.84-368.64 163.84-368.64s-215.040-368.64-163.84-368.64 389.12 368.64 389.12 368.64-337.92 368.64-389.12 368.64zM558.080 960c-71.68 0-539.307-512-539.307-512s469.333-512 539.307-512c71.68 0-226.987 512-226.987 512s298.667 512 226.987 512z" />
<glyph unicode="&#xe92d;" glyph-name="hourglass" d="M921.6 960v-102.4h-102.4v-225.792l-183.808-183.808 183.808-183.808v-225.792h102.4v-102.4h-819.202v102.4h102.4v225.792l183.808 183.808-183.808 183.808v225.792h-102.4v102.4h819.202zM716.801 222.206l-153.6 153.6v144.384l153.6 153.6v183.808h-409.6v-183.808l153.6-153.6v-144.384l-153.6-153.6v-183.808h409.6v183.808z" />
<glyph unicode="&#xe92e;" glyph-name="flag" d="M142.221 960c31.419 0 56.889-25.471 56.889-56.889v-50.063c60.303 25.031 142.223 50.063 227.556 50.063 170.667 0 170.667-113.777 284.444-113.777 170.667 0 227.556 113.777 227.556 113.777v-455.111c0 0-56.889-113.777-227.556-113.777s-170.667 113.777-284.444 113.777c-170.667 0-227.556-113.777-227.556-113.777v-398.223h-113.777v967.111c0 31.419 25.471 56.889 56.889 56.889zM199.111 718.223v-241.777c0 0 113.777 85.333 227.556 85.333s170.667-113.777 284.444-113.777c113.777 0 113.777 56.889 113.777 56.889v199.111c0 0-56.889-28.444-113.777-28.444-113.777 0-170.667 113.777-284.444 113.777s-227.556-71.111-227.556-71.111z" />
<glyph unicode="&#xe92f;" glyph-name="ban" d="M512 960c282.769 0 512-229.23 512-512s-229.23-512-512-512c-282.769 0-512 229.23-512 512s229.23 512 512 512zM512 857.599c-226.215 0-409.599-183.384-409.599-409.599 0-94.72 32.256-181.76 86.016-251.391l574.976 574.976c-69.632 53.76-156.672 86.016-251.391 86.016zM512 38.401c226.215 0 409.599 183.384 409.599 409.599 0 94.72-32.256 181.76-86.016 251.391l-574.976-574.976c69.632-53.76 156.672-86.016 251.391-86.016z" />
<glyph unicode="&#xe930;" glyph-name="flow-chart" d="M941.367 159.594v230.076h-405.063v230.076c84.253 12.962 140.962 92.354 128 176.608s-92.354 140.962-176.608 128-140.962-92.354-128-176.608c9.722-66.43 61.57-116.658 128-128v-230.076h-405.063v-230.076c-51.848-12.962-82.633-66.43-69.671-118.278s66.43-82.633 118.278-69.671 82.633 66.43 69.671 118.278c-8.101 34.025-35.646 61.57-69.671 69.671v181.468h356.456v-181.468c-51.848-12.962-82.633-66.43-69.671-118.278s66.43-82.633 118.278-69.671 82.633 66.43 69.671 118.278c-8.101 34.025-35.646 61.57-69.671 69.671v181.468h356.456v-181.468c-51.848-12.962-82.633-66.43-69.671-118.278s66.43-82.633 118.278-69.671 82.633 66.43 69.671 118.278c-8.101 34.025-35.646 59.949-69.671 69.671zM406.684 770.43c0 58.329 46.987 105.316 105.316 105.316s105.316-46.987 105.316-105.316-46.987-105.316-105.316-105.316c-58.329 0-105.316 46.987-105.316 105.316z" />
<glyph unicode="&#xe931;" glyph-name="heart" d="M517.12 121.6l-5.12-5.12-5.632 5.12c-243.2 220.671-403.968 366.591-403.968 514.56 0 102.4 76.8 179.199 179.199 179.199 78.848 0 155.648-51.2 182.784-120.832h95.232c27.136 69.632 103.936 120.832 182.784 120.832 102.4 0 179.199-76.8 179.199-179.199 0-147.968-160.767-293.888-404.48-514.56zM742.4 917.76c-89.088 0-174.591-41.472-230.4-106.496-55.808 65.024-141.312 106.496-230.4 106.496-157.695 0-281.6-123.392-281.6-281.6 0-193.023 174.080-351.231 437.76-590.336l74.24-67.584 74.24 67.584c263.679 239.103 437.76 397.311 437.76 590.336 0 158.208-123.904 281.6-281.6 281.6z" />
<glyph unicode="&#xe932;" glyph-name="people" d="M698.183 401.454c-13.498 0-28.858 0-45.149-2.327 53.992-39.098 91.694-90.764 91.694-160.582v-116.364h279.273v116.364c0 108.451-217.367 162.909-325.818 162.909zM325.819 401.454c-108.451 0-325.818-54.458-325.818-162.909v-116.364h651.636v116.364c0 108.451-217.367 162.909-325.818 162.909zM325.819 494.546c77.119 0 139.636 62.518 139.636 139.636s-62.518 139.636-139.636 139.636c-77.119 0-139.636-62.518-139.636-139.636s62.518-139.636 139.636-139.636zM698.183 494.546c77.119 0 139.636 62.518 139.636 139.636s-62.518 139.636-139.636 139.636c-77.119 0-139.636-62.518-139.636-139.636s62.518-139.636 139.636-139.636z" />
<glyph unicode="&#xe933;" glyph-name="glove" d="M608.426 959.999c-155.307 0-274.773-100.693-291.84-238.933-18.773 8.533-37.547 11.947-56.32 11.947v0c-64.853 0-136.533-51.2-136.533-124.587v-121.173c0-85.333 64.853-124.587 116.053-157.013 56.32-35.84 93.867-59.733 93.867-124.587v0-269.653h440.32v273.067h1.707c0 20.48 13.653 44.373 40.96 75.093 35.84 40.96 83.627 95.573 83.627 211.627v187.733c0 160.427-122.88 276.48-291.84 276.48zM707.413 145.919v-143.36h-307.2v160.427h307.2v-17.067zM831.999 497.492c0-90.453-32.427-128-64.853-165.547l-1.707-3.413-3.413-3.413c-23.893-27.307-47.787-54.613-52.907-97.28l-1.707-15.36h-315.733l-1.707 15.36c-8.533 90.453-69.973 129.707-121.173 160.427-44.373 29.013-80.213 51.2-80.213 98.987v121.173c0 32.427 37.547 58.027 69.973 58.027 20.48 0 39.253-8.533 52.907-22.187 10.24-8.533 15.36-20.48 17.067-34.133v-98.987h49.493l1.707 174.080c0 121.173 95.573 208.213 228.693 208.213 131.413 0 223.573-85.333 223.573-208.213v-187.733z" />
<glyph unicode="&#xe934;" glyph-name="twitter" d="M113.778 959.999h796.445c62.837 0 113.777-50.94 113.777-113.777v-796.445c0-62.837-50.94-113.777-113.777-113.777h-796.445c-62.837 0-113.777 50.94-113.777 113.777v796.445c0 62.837 50.94 113.777 113.777 113.777zM836.838 599.892c27.307 22.756 59.164 50.063 73.387 80.213-23.324-11.947-51.2-19.343-81.92-23.324 28.444 20.48 51.769 47.217 63.716 83.627-29.583-15.929-59.733-29.583-97.28-36.409-88.177 106.383-299.236 19.911-261.69-139.378-148.48 9.103-238.934 76.231-314.027 158.72-42.667-69.404-5.689-174.65 44.943-203.663-26.169 1.707-46.080 9.671-64.853 18.773 2.276-87.609 50.631-129.707 118.329-152.463-20.48-3.983-43.236-5.12-64.853-1.707 21.049-60.871 64.853-98.987 139.947-106.951-51.2-43.236-145.636-73.387-221.867-61.44 65.423-41.529 139.947-74.524 243.484-69.973 250.88 11.377 418.703 191.147 422.685 453.974z" />
<glyph unicode="&#xe935;" glyph-name="play" horiz-adv-x="1005" d="M100.216 959.998v-1023.998l804.57 512-804.57 512z" />
<glyph unicode="&#xe936;" glyph-name="expand" d="M398.222-63.999v113.777h-204.23l255.999 255.999-80.213 80.213-255.999-255.999v204.23h-113.777v-398.222h398.222zM654.222 510.009l255.999 255.999v-204.23h113.777v398.222h-398.222v-113.777h204.23l-255.999-255.999 80.213-80.213z" />
<glyph unicode="&#xe937;" glyph-name="collapse" d="M942.974 959.999l-258.586-258.586v206.293h-114.926v-402.245h402.245v114.926h-206.293l258.586 258.586-81.023 81.023zM52.292 390.536v-114.926h206.293l-258.586-258.586 81.023-81.023 258.586 258.586v-206.293h114.926v402.245h-402.245z" />
<glyph unicode="&#xe938;" glyph-name="facebook" d="M768 960v0 0-204.8h-102.4c-35.328 0-51.2-41.472-51.2-76.8v-128h153.6v-204.8h-153.6v-409.599h-204.8v409.599h-153.6v204.8h153.6v204.8c0 113.108 91.692 204.8 204.8 204.8h153.6z" />
<glyph unicode="&#xe939;" glyph-name="facebook-negitive" d="M967.27 960h-910.54c-31.33 0-56.73-25.398-56.73-56.73v-910.54c0-31.33 25.398-56.73 56.73-56.73h496.23v389.12h-143.36v163.84h143.36v112.026c0 132.3 75.366 204.8 193.332 204.8 40.162-0.042 79.752-2.272 118.716-6.58l-4.848-138.214h-74.342c-64.102 0-69.018-30.516-69.018-75.162v-96.87h143.36l-20.48-163.84h-122.88v-389.12h250.47c31.33 0 56.73 25.398 56.73 56.73v910.54c0 31.33-25.398 56.73-56.73 56.73z" />
<glyph unicode="&#xe93a;" glyph-name="laurels" d="M162.856 191.010l33.16-40.294h1.928c-19.279 33.738-5.206 61.307 15.423 87.72 24.291-27.763 28.341-60.151 0-105.843l40.486-34.124h1.736c-25.063 30.847-16.773 61.115 0 92.54 15.787-12.516 26.496-30.843 28.885-51.698 0.128-2.105 0.181-4.153 0.181-6.215 0-17.675-3.963-34.424-11.052-49.405l43.869-23.589 1.736 2.314c-28.919 26.605-25.255 57.837-14.651 90.998 21.937-11.788 37.327-33.304 40.448-58.62 0.48-4.449 0.732-9.176 0.732-13.962 0-9.314-0.955-18.406-2.771-27.183 0.104 0.597 0.079 0.288 0.079-0.026 0-1.533 0.616-2.92 1.613-3.929 14.845-5.784 29.689-11.181 44.92-16.193-15.254 9.948-26.268 25.306-30.37 43.293-1.452 7.369-2.231 15.299-2.231 23.414s0.779 16.045 2.267 23.722c20.793-7.776 37.47-22.632 46.708-41.755 6.305-14.787 9.852-31.438 9.852-48.917 0-2.491-0.072-4.965-0.215-7.422l53.033-8.915-1.35-14.459c-11.567 2.12-21.979 2.12-32.388 5.012s-20.821 4.434-31.039 6.94c-0.508 0.162-1.096 0.256-1.702 0.256-2.156 0-4.035-1.179-5.031-2.928-8.384-10.242-16.896-19.426-25.927-28.068-13.175-11.342-30.295-18.18-49.011-18.18-8.868 0-17.376 1.534-25.274 4.353 7.655 14.885 17.116 27.676 28.593 38.323 11.492 9.788 26.405 15.698 42.698 15.698 0.403 0 0.804-0.004 1.205-0.011l-3.53 1.544c-11.953 4.82-23.907 9.448-35.666 14.459-0.939 0.608-2.088 0.97-3.321 0.97-2.031 0-3.833-0.981-4.957-2.496-13.541-15.022-31.274-25.997-51.351-31.095-4.72-0.859-9.331-1.263-14.036-1.263-13.821 0-26.829 3.479-38.197 9.609 21.25 25.816 43.035 46.831 80.052 40.275-11.249 5.966-20.576 11.656-29.553 17.82-2.208 2.496-6.633 4.445-11.511 4.445s-9.303-1.949-12.535-5.11c-13.631-10.133-30.798-16.222-49.388-16.222-0.8 0-1.598 0.011-2.395 0.034-16.513 1.369-31.515 7.384-43.856 16.73 24.31 20.669 48.793 37.25 83.689 24.332l-36.438 33.738c-36.438-17.351-72.105-21.979-104.685 11.375 27.183 16.579 54.173 27.763 85.406 10.218l-4.242 5.592c-7.52 9.832-15.231 19.279-22.557 29.883-0.921 1.898-2.833 3.184-5.046 3.184-0.977 0-1.896-0.25-2.694-0.691-9.549-3.039-20.567-4.799-31.993-4.799-5.571 0-11.044 0.418-16.391 1.226-19.541 3.833-36.31 15.862-46.458 32.392 10.611 6.996 23.696 10.961 37.707 10.961 18.573 0 35.518-6.966 48.365-18.428l-25.326 47.104c-54.753-4.82-77.116 13.303-91.576 44.534 8.386 2.352 18.016 3.703 27.96 3.703 5.644 0 11.187-0.435 16.598-1.275 14.553-3.118 27.454-11.181 36.711-22.371-2.803 7.987-5.695 15.892-8.395 23.99s-5.012 16.001-7.326 24.099c-0.032 0-0.072 0-0.111 0-24.103 0-46.106 8.99-62.84 23.8-9.086 9.297-15.828 21.107-19.072 34.296 2.576 0.747 5.697 0.881 8.851 0.881 12.098 0 23.737-1.969 34.614-5.605 13.42-5.168 24.681-15.555 31.082-28.738 0.151 2.547 0.151 3.897 0.151 5.055s0 2.506 0 3.856c-1.542 12.723-3.278 25.449-4.628 38.558 0.009 0.119 0.013 0.258 0.013 0.397 0 3.063-2.382 5.571-5.394 5.771-15.482 3.6-29.017 10.297-40.518 19.439-13.461 11.375-22.357 28.196-23.306 47.11-0.055 0.474-0.083 0.843-0.083 1.216s0.028 0.742 0.083 1.101c0.442-0.030 0.971-0.024 1.501-0.024 30.078 0 55.725-18.976 65.622-45.609 0.183-0.137 0.198 0.265 0.198 0.672s-0.015 0.811-0.043 1.211c0.004 16.333 0.004 32.528 1.352 48.915 0.049 0.265 0.075 0.572 0.075 0.885 0 2.493-1.751 4.575-4.089 5.085-13.051 5.618-24.135 13.365-33.358 22.918-10.88 11.475-17.555 26.974-17.555 44.033 0 3.455 0.273 6.844 0.8 10.15 29.017-4.88 51.897-26.85 57.711-55.053 0.077 3.792 1.427 8.226 2.391 12.467 2.892 12.531 5.592 25.063 8.868 37.402 0.264 0.589 0.416 1.276 0.416 1.999 0 2.011-1.184 3.745-2.892 4.543-12.458 7.913-22.715 18.108-30.449 30.086-5.833 9.687-9.144 20.913-9.144 32.912 0 7.478 1.286 14.657 3.651 21.326 27.045-14.713 47.482-33.029 45.36-67.537 1.542 4.242 2.892 8.484 4.628 12.531 5.206 12.531 10.411 25.063 16.001 37.402 0.723 0.909 1.16 2.077 1.16 3.344 0 1.909-0.992 3.588-2.489 4.547-10.451 9.453-18.756 21.034-24.268 34.083-2.785 7.301-4.261 15.013-4.261 23.071 0 11.048 2.773 21.446 7.663 30.54 11.699-8.866 21.36-19.697 28.305-32.238 3.577-8.218 5.511-17.208 5.511-26.65 0-5.772-0.723-11.377-2.082-16.726 5.306 9.336 10.319 18.204 15.717 26.688s10.989 16.773 16.773 25.449c-21.207 28.533-31.425 57.837-7.52 91.384 19.279-22.171 32.388-45.498 17.737-75.766h0.386c6.362 7.326 12.339 14.845 19.279 21.785s14.267 13.687 21.207 20.435c-7.902 12.861-12.584 28.439-12.584 45.108 0 5.11 0.441 10.116 1.284 14.985 3.295 11.675 10.054 21.994 19.117 29.677 9.651-10.767 15.487-25.093 15.487-40.782 0-13.623-4.402-26.217-11.859-36.438l3.978 2.297c14.073 10.604 28.147 21.207 42.222 31.618 1.644 0.791 2.756 2.444 2.756 4.355 0 0.879-0.235 1.706-0.648 2.416-3.052 8.627-4.824 18.601-4.824 28.992 0 4.66 0.356 9.239 1.043 13.706 3.73 15.853 13.637 29.41 27.060 37.911 12.59-28.384 14.134-54.797-10.159-76.968l54.559 28.341c-1.054 4.965-1.659 10.669-1.659 16.515 0 14.585 3.758 28.292 10.357 40.206 6.725 9.743 16.38 17.598 27.712 22.177 3.065-6.469 4.605-14.139 4.605-22.169 0-22.506-12.089-42.188-30.127-52.908l26.514 9.291c1.433 0.823 2.645 1.851 3.645 3.063 3.681 3.3 7.151 6.962 10.814 10.048 6.776 6.040 15.76 9.732 25.607 9.732 3.718 0 7.314-0.527 10.716-1.508l17.85-4.752c-9.63-13.746-25.398-22.621-43.237-22.621-6.629 0-12.974 1.226-18.816 3.464-1.086 0.535-2.775 0.919-4.556 0.919s-3.47-0.382-4.993-1.069c-10.142-4.21-20.36-8.066-30.385-12.693 3.735 0.633 8.039 0.992 12.428 0.992 10.673 0 20.847-2.137 30.118-6.004 11.914-7.535 21.956-18.006 28.953-30.425-25.422-10.449-52.605-7.171-81.716 31.773l-53.789-30.655v-2.506c7.22 3.27 15.655 5.177 24.536 5.177 21.437 0 40.279-11.106 51.086-27.879-24.34-14.506-51.331-16.048-86.997 17.112l-49.354-39.714v-1.542c9.647 6.3 21.457 10.046 34.143 10.046 4.291 0 8.482-0.429 12.531-1.244 12.71-4.249 24.022-10.833 33.633-19.302-21.698-20.151-50.425-23.043-89.947 2.020l-39.908-46.848v-2.314c26.219 23.521 53.21 19.279 80.78 4.048-19.279-25.641-48.39-32.582-90.42-14.651l-30.269-51.668 1.156-1.736c21.979 26.991 49.354 26.219 79.43 16.001-8.612-15.757-23.084-27.399-40.415-32.091-6.947-1.595-14.399-2.449-22.050-2.449s-15.103 0.855-22.265 2.472c0.435-0.090 0.162-0.070-0.117-0.070-1.501 0-2.858-0.612-3.835-1.6-7.134-17.351-13.881-34.896-19.279-53.018 8.035 12.1 19.443 21.395 32.88 26.635 8.971 2.722 18.735 4.197 28.843 4.197 5.364 0 10.632-0.414 15.773-1.214-9.248-27.881-30.841-48.51-83.086-46.968l-10.796-59.379 1.736-1.542c11.759 35.28 38.558 44.534 71.911 45.306-5.398-31.425-23.327-54.367-74.417-61.501v-57.837h1.736c2.881 19.272 14.642 35.297 30.912 43.994 9.753 5.209 20.723 8.924 32.334 10.688 0.567-26.341-7.145-56.032-63.246-74.925l9.254-53.018h2.12c0 37.016 23.907 53.981 54.753 66.513 0.909-4.298 1.431-9.235 1.431-14.296 0-15.103-4.643-29.12-12.58-40.704-9.393-12.044-21.292-22.032-34.919-29.163-2.901-1.437-4.829-2.208-3.673-5.486 5.592-15.231 10.989-30.655 17.737-46.27-4.628 36.438 16.387 57.837 43.764 74.225 11.567-30.269 8.484-61.115-34.51-96.395l25.255-43.956h1.736c-11.375 35.474 6.362 59.187 30.461 81.164 22.749-38.944 9.062-71.141-17.929-101.601zM861.338 709.81l-39.908 46.656c-41.642-26.991-69.019-21.015-90.998-2.12 24.485 21.399 51.476 28.919 80.394 9.832v2.314l-48.198 39.522c-13.347-14.497-31.551-24.344-52.016-26.947-0.924-0.058-1.516-0.066-2.109-0.066-12.339 0-23.871 3.449-33.688 9.438 20.527 24.131 44.242 36.276 76.245 22.973v2.892l-53.596 30.655c-21.015-27.955-45.306-45.498-81.936-32.582 16.001 28.147 38.558 43.186 71.911 34.51v1.928l-5.012 2.314-16.195 5.976c-4.455 2.436-9.758 3.867-15.397 3.867-4.168 0-8.152-0.783-11.816-2.208-3.598-1.115-7.988-1.8-12.541-1.8-11.695 0-22.333 4.528-30.255 11.925-3.445 3.253-7.107 6.917-11.349 10.579 7.088 4.673 15.783 7.456 25.129 7.456 12.787 0 24.359-5.209 32.707-13.622 6.518-6.482 14.636-11.357 23.709-13.979 4.825-1.446 8.875-3.182 13.887-4.338-18.366 10.628-30.525 30.18-30.525 52.573 0 8.075 1.581 15.783 4.451 22.826 24.338-10.622 42.461-31.059 36.485-79.063l56.101-29.305c-10.31 9.579-17.6 22.278-20.367 36.591-0.132 1.679-0.168 3.152-0.168 4.632 0 13.731 3.093 26.737 8.621 38.364 15.757-10.703 26.513-27.866 27.716-47.607 0.094-1.747 0.143-3.594 0.143-5.452 0-11.123-1.742-21.84-4.965-31.891 0.062 0.269-0.019-0.269-0.019-0.828 0-1.305 0.448-2.506 1.197-3.457 15.414-11.556 31.223-23.124 47.61-34.691-20.435 26.991-13.687 52.632 2.7 77.116 22.749-19.279 29.305-48.39 7.904-90.034 6.94-6.556 14.459-13.303 21.399-20.435s13.303-15.231 20.243-23.327c-2.127 5.729-3.999 12.594-5.281 19.663-0.341 2.753-0.469 5.046-0.469 7.371 0 5.115 0.621 10.086 1.79 14.84 2.013 6.906 4.974 13.311 8.757 19.132 3.494 5.699 8.12 11.097 12.554 16.881 19.279-24.677 21.593-53.21-6.748-91.19l33.16-53.018c-1.732 5.428-2.73 11.673-2.73 18.149 0 10.114 2.434 19.659 6.748 28.083 7.158 11.357 16.351 21.162 27.106 28.941 5.204-8.679 8.088-19.272 8.088-30.54 0-7.134-1.156-13.998-3.293-20.414-5.661-14.094-14.324-26.411-25.234-36.293-1.519-0.774-2.491-2.223-2.491-3.899 0-0.715 0.177-1.391 0.491-1.983 7.122-16.557 13.87-33.33 20.81-50.103l1.35-2.314c-0.22 1.949-0.346 4.208-0.346 6.497 0 13.414 4.323 25.82 11.65 35.9 9.056 10.583 20.292 19.29 33.014 25.398 2.649-5.814 3.829-12.812 3.829-20.083 0-11.556-2.982-22.416-8.218-31.852-7.81-12.674-18.364-23.353-30.856-31.24-2.284-1.103-3.572-2.977-3.572-5.153 0-0.802 0.175-1.565 0.49-2.248 3.843-15.583 7.119-31.391 10.59-47.2 0.279-1.103 0.744-2.071 1.365-2.914 4.033 32.991 28.132 47.256 56.086 56.51 3.856-29.305-5.206-57.837-52.632-79.236v-54.559l1.542-0.964c9.832 32.966 36.052 42.222 66.321 46.656 0-2.892 0-5.398 0-7.712-2.66-23.562-17.583-43.103-38.146-52.274-8.318-3.828-16.993-6.141-25.089-9.419-1.994-0.802-3.526-2.397-4.225-4.383-2.137-16.052-4.065-32.055-5.993-49.020 16.001 31.425 43.956 35.666 75.188 34.894-4.112-18.968-15.376-34.77-30.764-44.752-13.565-7.697-29.301-12.511-46.072-13.458-2.276-0.139-4.008-1.167-5.087-2.692-5.219-15.25-9.845-30.673-14.858-46.097 4.961 5.134 10.315 9.815 16.039 14.023 5.893 3.705 12.328 6.428 19.187 8.060 5.217 0.97 10.713 1.474 16.327 1.474 2.28 0 4.539-0.083 6.776-0.247 7.026 0.017 14.16-1.717 21.68-2.875-15.231-34.702-41.642-49.74-91.576-44.92l-24.677-46.078c26.991 24.485 55.909 19.279 86.37 6.748-12.076-19.294-32.605-32.33-56.269-33.919-1.892-0.090-3.856-0.136-5.829-0.136-12.494 0-24.564 1.806-35.968 5.172 0.495-0.126 0.032-0.070-0.444-0.070-1.399 0-2.681-0.497-3.681-1.322-9.436-12.33-19.27-24.861-28.137-38.551 9.304 5.897 20.635 9.397 32.784 9.397 3.743 0 7.41-0.333 10.971-0.97 15.216-3.327 28.981-9.414 41.079-17.743-23.139-24.809-54.371-35.412-104.497-11.313l-36.438-33.738c34.894 12.917 59.379-3.47 83.672-24.485-12.791-10.135-29.163-16.259-46.966-16.259-4.797 0-9.491 0.444-14.041 1.295-15.969 3.762-30.427 10.432-43.088 19.458-0.74 0.646-2.171 1.19-3.73 1.19-0.39 0-0.77-0.034-1.141-0.1-13.264-7.898-26.373-16.19-41.218-25.249 38.558 7.52 59.957-13.303 80.78-38.558-11.72-5.964-25.56-9.459-40.215-9.459-0.503 0-1.003 0.004-1.502 0.013-14.051 0.666-26.932 5.482-37.519 13.243-8.676 5.648-16.387 13.168-24.677 19.144-1.216 1.192-2.884 1.928-4.724 1.928-0.034 0-0.068 0-0.102 0-13.876-5.592-27.757-11.375-42.986-17.737 38.558 0 57.837-24.291 73.647-53.596-7.412-2.523-15.95-3.98-24.829-3.98-13.708 0-26.607 3.474-37.86 9.587-14.96 9.248-27.578 21.745-36.9 36.529-1.367 2.504-3.477 3.863-5.904 3.863-0.892 0-1.742-0.185-2.513-0.516l-57.796-10.973h-3.856l-1.542 13.881 52.054 8.868c0 43.764 10.411 80.008 56.295 96.395 4.82-35.088 2.892-67.285-31.233-88.684l1.156-1.156 46.462 16.773c-0.964 7.904-2.314 15.231-2.892 22.749-0.554 3.468-0.868 7.469-0.868 11.541 0 27.565 14.461 51.75 36.212 65.387l5.528 3.466c11.181-32.196 15.037-63.621-14.267-90.034l1.35-1.156 43.186 24.099c-22.749 57.837-4.628 86.564 19.279 106.421 16.387-30.655 24.485-61.115 0-91.962h1.736l40.486 34.124c-21.979 35.666-30.269 70.561 0 106.227 9.971-11.972 17.556-26.309 21.798-42.019 1.226-5.409 1.824-10.724 1.824-16.18 0-11.358-2.598-22.109-7.233-31.692l5.202 6.027 28.341 34.124c-40.1 46.27-31.811 77.116-17.737 102.179 24.099-21.785 41.836-45.692 30.461-80.972h1.736l25.449 43.57c-43.378 34.894-45.498 63.813-34.894 96.395 27.377-17.159 48.776-38.558 44.342-74.032 0.723 1.235 1.497 2.754 2.191 4.317 5.136 13.612 9.956 27.107 14.968 40.411 0.393 0.633 0.627 1.399 0.627 2.22 0 2.018-1.41 3.707-3.299 4.136-13.401 7-24.677 16.184-33.816 27.202-8.762 11.829-13.938 26.481-13.938 42.339 0 5.072 0.529 10.020 1.536 14.793 30.764-12.804 54.478-29.77 54.671-66.786h2.12l9.254 53.018c-23.969 5.853-43.796 20.525-56.265 40.3-5.093 10.204-7.941 21.774-7.941 34.008 0 0.377 0.002 0.753 0.008 1.13 32.003-6.418 57.837-19.336 64.005-55.196l1.736 0.964v57.259c-37.208 5.206-67.091 19.279-74.61 61.501 0.488 0.009 1.062 0.013 1.636 0.013 15.436 0 30.056-3.489 43.118-9.721 12.454-7.642 22.391-19.575 27.588-33.791l1.689-0.459-10.796 59.379c-38.558-1.156-68.827 7.52-83.092 46.848 31.233 4.628 58.801 1.35 77.116-29.691v1.156c-1.156 3.664-2.12 7.52-3.47 11.181l-15.231 39.908c-0.264 2.22-2.135 3.925-4.406 3.925-0.714 0-1.386-0.168-1.983-0.467-6.288-1.48-13.539-2.336-20.989-2.336s-14.7 0.855-21.657 2.474c-17.334 4.599-31.937 16.431-40.253 32.106 8.623 5.187 19.098 8.034 30.238 8.034 19.217 0 36.455-8.468 48.186-21.877l1.414-0.073-29.691 51.282c-33.546-13.881-64.777-16.579-90.998 14.267 11.609 7.265 25.492 11.999 40.384 13.092 15.175-0.864 28.542-6.702 38.922-15.853z" />
<glyph unicode="&#xe93b;" glyph-name="trash" d="M910.221 903.111h-199.111l-56.889 56.889h-284.444l-56.889-56.889h-199.111v-113.777h796.444zM170.665 49.777c0-62.837 50.94-113.777 113.777-113.777h455.111c62.837 0 113.777 50.94 113.777 113.777v682.667h-682.667v-682.667z" />
<glyph unicode="&#xe93c;" glyph-name="person" d="M512.001 959.999c141.385 0 256-114.615 256-256s-114.615-256-256-256c-141.385 0-256 114.615-256 256s114.615 256 256 256zM512.001 320.001c282.88 0 511.999-114.559 511.999-256v-127.999h-1024v127.999c0 141.439 229.12 256 511.999 256z" />
<glyph unicode="&#xe93d;" glyph-name="left-arrow" horiz-adv-x="1014" d="M1014.002 512.016v-128.030h-768.185l352.085-352.085-90.902-90.902-507.002 507.002 507.002 507.002 90.902-90.902-352.085-352.085h768.185z" />
<glyph unicode="&#xe93e;" glyph-name="down-arrow" horiz-adv-x="1014" d="M442.984 955.002h128.030v-768.185l352.085 352.085 90.902-90.902-507.002-507.002-507.002 507.002 90.902 90.902 352.085-352.085v768.185z" />
<glyph unicode="&#xe93f;" glyph-name="up-arrow" horiz-adv-x="1014" d="M571.016-59.002h-128.030v768.185l-352.085-352.085-90.902 90.902 507.002 507.002 507.002-507.002-90.902-90.902-352.085 352.085v-768.185z" />
<glyph unicode="&#xe940;" glyph-name="chain" d="M958.512 303.415l-153.090 154.791c-32.319 30.618-73.143 47.628-115.668 47.628s-85.050-17.010-115.668-47.628l-13.608-13.608-54.432 54.432 13.608 13.608c62.937 62.937 62.937 166.698 0 229.635l-153.090 154.791c-62.937 62.937-166.698 62.937-229.635 0l-88.452-88.452c-30.618-30.618-47.628-71.442-47.628-115.668s17.010-85.050 47.628-115.668l154.791-154.791c30.618-30.618 71.442-47.628 115.668-47.628s85.050 17.010 115.668 47.628l13.608 13.608 54.432-54.432-17.010-11.907c-30.618-30.618-47.628-71.442-47.628-115.668s17.010-85.050 47.628-115.668l154.791-154.791c32.319-32.319 73.143-47.628 115.668-47.628s83.349 15.309 115.668 47.628l88.452 88.452c62.937 64.638 62.937 168.399-1.701 231.336zM371.669 483.721c-15.309-15.309-34.020-22.113-54.432-22.113s-40.824 8.505-54.432 22.113l-154.791 154.791c-15.309 15.309-22.113 34.020-22.113 54.432s8.505 40.824 22.113 54.432l88.452 88.452c15.309 15.309 35.721 22.113 54.432 22.113s39.123-6.804 54.432-22.113l154.791-154.791c30.618-30.618 30.618-79.947 0-110.565l-13.608-13.608-34.020 34.020c-17.010 17.010-44.226 17.010-59.535 0-17.010-17.010-17.010-44.226 0-59.535l34.020-34.020-15.309-13.608zM898.977 133.317l-88.452-88.452c-30.618-30.618-79.947-30.618-110.565 0l-153.090 154.791c-15.309 15.309-22.113 34.020-22.113 54.432s8.505 40.824 22.113 54.432l13.608 13.608 34.020-34.020c8.505-8.505 18.711-11.907 30.618-11.907s22.113 3.402 30.618 11.907c17.010 17.010 17.010 44.226 0 59.535l-34.020 34.020 13.608 13.608c15.309 15.309 34.020 22.113 54.432 22.113s40.824-8.505 54.432-22.113l154.791-154.791c30.618-27.216 30.618-76.545 0-107.163z" />
<glyph unicode="&#xe941;" glyph-name="edit" d="M1001.935 725.781c22.064 22.064 22.064 58.837 0 79.77l-132.384 132.384c-20.933 22.064-57.706 22.064-79.77 0l-104.098-103.531 212.155-212.155zM-0.001 148.154v-212.155h212.155l625.714 626.28-212.155 212.155-625.714-626.28z" />
<glyph unicode="&#xe942;" glyph-name="playbooks" horiz-adv-x="1103" d="M435.313 366.802c-9.022-22.555 0-49.621 24.811-58.643 6.767-2.256 13.533-2.256 20.3-2.256 38.344 2.256 69.921 27.066 83.454 63.154 9.022 22.555 0 49.621-24.811 58.643-6.767 2.256-13.533 4.511-20.3 4.511-38.344-2.256-69.921-29.322-83.454-65.41zM1075.877 720.916c-9.022 13.533-22.555 22.555-38.344 27.066 2.256-13.533 0-24.811-2.256-36.088l-196.229-638.308c-4.511-11.278-11.278-20.3-22.555-27.066s-22.555-9.022-36.088-9.022h-599.965c-51.877 0-83.454 15.789-92.476 45.11-4.511 9.022-4.511 18.044 0 27.066 6.767 6.767 15.789 11.278 24.811 9.022h563.877c40.599 0 67.665 6.767 83.454 22.555 22.555 29.322 38.344 63.154 47.366 99.242l178.185 586.432c6.767 29.322 2.256 60.899-15.789 83.454-15.789 22.555-45.11 36.088-72.176 36.088h-493.956c-11.278 0-22.555-2.256-33.833-6.767v2.256c-9.022 2.256-20.3 4.511-29.322 4.511s-15.789-2.256-22.555-6.767c-6.767-4.511-11.278-9.022-18.044-15.789-4.511-6.767-9.022-13.533-13.533-20.3-4.511-9.022-6.767-15.789-11.278-22.555-2.256-6.767-6.767-13.533-9.022-22.555-2.256-6.767-6.767-13.533-11.278-20.3-2.256-4.511-6.767-6.767-11.278-13.533s-9.022-11.278-11.278-15.789c-2.256-4.511-4.511-6.767-6.767-11.278 0-6.767 0-11.278 2.256-18.044 2.256-4.511 2.256-11.278 2.256-15.789-4.511-22.555-11.278-42.855-20.3-63.154-6.767-20.3-15.789-38.344-27.066-54.132-2.256-2.256-6.767-6.767-13.533-15.789-6.767-4.511-11.278-11.278-13.533-20.3-2.256-6.767-2.256-11.278 0-18.044 2.256-4.511 2.256-11.278 2.256-18.044-2.256-20.3-9.022-40.599-15.789-58.643-6.767-20.3-15.789-40.599-27.066-58.643-2.256-4.511-6.767-11.278-11.278-15.789s-9.022-11.278-11.278-18.044c0-6.767 0-11.278 0-18.044 2.256-6.767 2.256-13.533 0-20.3-4.511-20.3-11.278-40.599-20.3-58.643-9.022-20.3-18.044-40.599-29.322-58.643-2.256-4.511-6.767-11.278-11.278-15.789-2.256-4.511-6.767-9.022-9.022-13.533s-4.511-9.022-4.511-13.533c0-4.511 0-9.022 2.256-13.533s2.256-9.022 2.256-13.533c0-6.767 0-13.533-2.256-24.811-2.256-9.022-2.256-15.789-2.256-18.044-9.022-27.066-9.022-56.388 2.256-81.198 13.533-33.833 36.088-63.154 65.41-85.709 27.066-22.555 60.899-33.833 96.987-33.833h599.965c29.322 0 56.388 11.278 78.943 29.322 24.811 18.044 40.599 40.599 49.621 69.921l178.185 586.432c6.767 27.066 2.256 58.643-13.533 81.198zM753.339 757.004l-67.665-49.621 18.044 58.643 94.731 69.921 49.621-72.176-18.044-60.899-33.833 49.621c-36.088-115.031-83.454-230.062-175.93-304.493 13.533-24.811 18.044-56.388 9.022-83.454-24.811-72.176-90.22-121.797-164.652-124.053-69.921 0-112.775 56.388-92.476 124.053 24.811 72.176 87.965 121.797 164.652 124.053 20.3 0 40.599-4.511 58.643-15.789 72.176 63.154 117.286 155.63 157.885 284.194zM306.749 671.295l76.687 58.643-42.855 58.643c-2.256 4.511 0 11.278 4.511 15.789l38.344 27.066c4.511 4.511 11.278 4.511 15.789 0l42.855-58.643 76.687 58.643c4.511 4.511 11.278 4.511 15.789 0l22.555-29.322c2.256-4.511 0-11.278-4.511-15.789l-78.943-58.643 42.855-58.643c2.256-4.511 0-11.278-4.511-15.789l-38.344-27.066c-4.511-4.511-11.278-4.511-15.789 0l-42.855 58.643-76.687-58.643c-4.511-4.511-11.278-4.511-15.789 0l-22.555 29.322c-2.256 6.767 0 11.278 6.767 15.789v0z" />
<glyph unicode="&#xe943;" glyph-name="alert" d="M558.545 331.636h-93.091v186.182h93.091zM558.545 145.454h-93.091v93.091h93.091zM-0.001 5.818h1024l-511.999 884.364-511.999-884.364z" />
</font>
</defs>
</svg>
